<?xml version="1.0" encoding="utf-8"?>
<!-- Generator: Adobe Illustrator 16.0.0, SVG Export Plug-In . SVG Version: 6.00 Build 0)  -->
<!DOCTYPE svg PUBLIC "-//W3C//DTD SVG 1.1//EN" "http://www.w3.org/Graphics/SVG/1.1/DTD/svg11.dtd">
<svg version="1.1" id="Ebene_1" xmlns="http://www.w3.org/2000/svg" xmlns:xlink="http://www.w3.org/1999/xlink" x="0px" y="0px"
	 width="320px" height="174px" viewBox="-0.034 -0.282 320 174" enable-background="new -0.034 -0.282 320 174"
	 xml:space="preserve">
<g id="frm">
	<polygon fill="#F299A4" points="142.342,126.188 138.807,125.464 139.969,123.247 139.969,106.498 143.454,105.759 
		141.928,110.824 	"/>
	<g>
		<path fill="#E62467" d="M189.964,131.358c0.11,0.107,0.217,0.215,0.324,0.321c0.556,0.412,0.349,3.829-2.22,4.846
			c-0.449,0.01-0.733,0.011-1.182,0.021c-0.103-0.047-0.455-0.181-0.559-0.229c-1.166-1.008-1.315-2.1-1.068-3.489
			c0.236-1.335,0.513-2.687,0.974-3.955c0.35-0.96,0.313-3.491,0.403-3.821c0.006-0.545,0.208-0.92,0.525-1.296
			c0.577,0.949,0.363,1.999,0.47,3.016c0.084,0.804-0.031,1.653,0.636,2.292C188.752,129.887,188.171,130.268,189.964,131.358z"/>
		<path fill="#F299A4" d="M190.113,109.105c-1.612,1.965-1.879,3.903-1.852,7.165c-0.388,3.607-0.538,6.844,0.001,10.266
			c0.023-0.217,0.096,1.283,0.057,1.165c-0.016,0.454,0.122,1.25,0.105,1.704c-0.668-0.639-0.84-1.818-0.854-2.635
			c-0.02-1.022,0.169-2.065-0.408-3.016c-0.317,0.375-0.341,0.582-0.525,1.296c0.023-2.012,0.06-4.027,0.063-6.04
			c0.001-0.712-0.03-1.432-0.134-2.136c-0.094-0.659-0.301-1.351-1.094-1.473c-0.728-0.112-1.283,0.208-1.527,0.948
			c0,0,0.008,0.016,0.009,0.016c-0.076,0.133-0.154,0.264-0.232,0.396c-0.495,0.836-1.127,1.533-2.019,1.965
			c-1.585,0.128-2.709-0.992-4.063-1.496c0.825-0.224,1.559-0.212,2.332,0.337c0.385,0.273,1.306,0.732,1.564,0.077
			c0.285-0.714,0.557-1.789-0.495-2.331c-1.711-0.885,2.217-2.888,0.788-4.198c-1.214-1.115-0.136-3.208-1.564-4.244
			c-2.005-1.452-12.24-0.126-14.038-1.81c-0.396-0.371-0.761-0.876-1.237-1.044c-1.082-0.381-1.658-1.154-2.197-2.09
			c-0.556-0.969-1.278-1.844-1.926-2.758c0.601-0.025,1.204-0.073,1.806-0.072c3.575,0.004,7.149,0.018,10.724,0.029
			c2.986,0.029,5.97,0.059,8.954,0.089c0.604,0.38,1.283,0.237,1.931,0.25c7.31,0.142,14.618,0.271,21.928,0.402l-0.009-0.007
			c0.649,2.095-3.03,2.644-7.067,4.909C194.972,106.83,192.047,106.747,190.113,109.105z"/>
		<g>
			<path fill="#E62467" d="M167.022,164.795c-0.636,1.027-1.378,1.822-2.747,1.275c-1.522-1.169-1.496-2.836-1.103-4.388
				c1.119-4.438,1.258-8.937,1.182-13.466c0.016-8.49,0.032-16.979,0.048-25.47c0.001-0.464-0.026-0.907-0.646-0.944
				c-0.255-2.076-0.454-4.16-0.788-6.223c-0.161-0.999-1.082-2.872-1.083-2.872c-0.695-2.069-3.147-2.274-4.979-0.121l-0.088,0.186
				c-0.578,0.298-1.145,0.906-1.805,0.649c-2.067-0.805-2.615,0.587-3.169,2.04c-0.714,0.417-0.584,1.126-0.589,1.771
				c-0.021,2.146-0.038,4.295-0.023,6.439c0.013,1.688-0.005,2.808,0.471,4.64c0.025,0.323,0.213,1.013,0.227,1.336
				c0.069,1.913,1.094,3.504,1.829,5.128c0.87,1.923,0.609,1.749,0.541,2.933c-0.085,1.427-0.36,2.332-1.701,3.162
				c-1.123,0.319-1.971,0.231-2.753-0.595c-0.853-1.453-0.993-3.051-0.556-4.606c1.979-7.073,1.346-14.217,0.261-21.269
				c-0.97-6.314-6.453-10.834-7.74-6.787c-0.395,1.235-0.712,1.052-0.932,1.05c-0.735-0.008-0.875-1.472-0.908-2.165
				c-0.112-2.522-0.345-3.087-1.582-6.549l-1.977-1.144c4.003-0.36,70.854,3.094,70.334,3.248
				c-6.261,1.852-11.693-0.586-18.004,3.094c-5.242,3.052-7.644,8.148-7.249,9.943c0.402,1.822,0.814,2.021,0.341,2.626
				c-0.557,0.711-2.797,0.266-3.182-0.008c-0.773-0.547-2.473,0.069-4.059,1.237c-1.102,1.058-1.175,1.642-1.235,1.733
				c-1.875,4.175-1.776,7.947-1.788,8.218c-0.502,11.721-0.556,23.449-0.375,35.175c0.026,1.709,0.607,3.551,1.641,5.037
				c0.621,0.896,0.483,1.158,0.282,1.98c-0.115,0.479-0.189,0.521-0.447,0.939c0,0-0.284,0.364-0.283,0.365
				c-0.505,0.676-0.249,0.4-0.871,0.851l-0.179,0.062c-2.225,0.484-3.266-0.384-3.005-2.751c0.101-0.925,0.368-1.832,0.562-2.745
				c0.33-1.55,0.742-3.08,0.84-4.679c0.375-6.215,0.279-12.436,0.17-18.654c-0.02-1.151-0.135-2.303-0.479-3.421
				c-0.256-0.835-0.583-1.647-1.58-1.636c-0.958,0.011-1.523,0.132-2.307,1.593c0,0-0.332,1.153-0.344,1.806
				c-0.096,4.471-0.01,8.941,0.664,13.366c0.25,1.636,0.262,3.526,1.565,4.723c0.876,0.806,0.73,1.452,0.41,2.27
				C167.609,163.737,167.295,164.257,167.022,164.795z"/>
		</g>
		<path fill="#F1EDEA" d="M202.822,126.008"/>
		<path fill="#F1EDEA" d="M169.42,98.805c-0.124-0.082-0.246-0.164-0.369-0.246C169.174,98.641,169.297,98.723,169.42,98.805z"/>
		<path fill="#F299A4" d="M164.355,148.217c-0.166-2.023-0.447-4.046-0.474-6.071c-0.091-6.78-0.091-13.563-0.125-20.342
			c0.621,0.038,0.647,0.482,0.646,0.944C164.386,131.238,164.37,139.727,164.355,148.217z"/>
		<path fill="#F299A4" d="M151.845,115.463c-0.472,4.404-0.188,8.89-0.07,13.295c-0.732-1.603-0.529-3.395-0.543-5.083
			c-0.015-2.147,0.002-4.295,0.023-6.44C151.26,116.589,151.131,115.879,151.845,115.463z"/>
		<path fill="#FD4B53" d="M151.979,98.971c2.599-0.127,5.195-0.232,7.782,0.173C157.163,99.207,154.564,99.378,151.979,98.971z"/>
		<path fill="#E8DDDE" d="M183.721,116.762c0.078-0.132,0.155-0.264,0.232-0.396C183.876,116.498,183.799,116.63,183.721,116.762z"
			/>
	</g>
	<g>
		<path fill="#F299A4" d="M65.834,31.423c-1.621,7.392-2.733,8.082-5.701,11.418c-9.517,9.888-10.259,10.506-34.483,19.034
			c-12.236,2.472-20.993-4.147-25.325-4.142c0.071-3.774,0.269-5.748,0.348-9.186c-0.037-0.929,0.746-1.621,1.499-2.055
			c2.287-1.314,4.201-3.108,6.293-4.667c3.205-2.388,6.396-4.796,9.578-7.218c3.499-2.666,6.885-5.488,10.46-8.042
			c1.851-1.323,3.664-2.724,5.36-4.184c2.423-2.09,5.117-3.795,7.555-5.845c1.349-1.131,2.155-1.069,3.589-0.049
			c5.191,3.7,10.403,7.371,15.595,11.072C62.365,28.818,64.09,30.134,65.834,31.423z"/>
		<path fill="#E62467" d="M138.457,96.703c7.158,0.548,14.313,1.13,21.476,1.552c7.721,0.453,15.455,0.629,23.191,0.571
			c5.705-0.042,11.409-0.021,17.115-0.032c4.363-0.009,8.692-0.622,13.044-0.792c9.609-0.377,19.191-1.155,28.786-1.757
			c4.825-0.303,9.62-0.952,14.415-1.567c5.42-0.695,23.777-2.894,27.52-3.426c3.83-0.545,7.66-1.098,11.49-1.65
			c3.788-0.545,7.573-1.103,11.363-1.638c3.88-0.549,7.759-1.098,11.648-1.585c0.582-0.074,1.299,0.333,1.426,0.871
			c0.142,0.605,0.113,1.395-0.581,1.845c-0.915,0.594-1.896,1.084-2.942,1.357c-5.691,1.472-11.447,2.602-17.273,3.403
			c-4.845,0.665-30.031,4.216-37.802,5.153c-8.471,1.021-16.988,1.485-25.492,2.104c-5.038,0.367-10.095,0.427-15.149,0.475
			c-7.042,0.065-14.081,0.4-21.1,0.943c-7.135,0.551-14.264,0.658-21.403,0.328c-7.63-0.351-15.264-0.584-22.882-1.083
			c-4.735-0.312-9.437-1.067-14.165-1.535c-2.757-0.273-8.573-0.895-8.725-0.908c-2.466-0.236-21.654-2.587-27.412-3.625
			C87.23,92.501,47.357,82.525,34.298,77.63C27.634,75.445,7.375,64.551,3.319,62.507c-2.019-1.02-3.481-2.25-2.994-4.775
			c9.134,0.657,15.809,0.713,24.696-1.215c8.054-2.059,24.607-9.844,31.396-15.686c4.953-3.78,5.73-5.399,9.417-9.408
			c2.868,1.49,14.231,10.06,17.462,12.253c0.825,0.559,1.013,1.16,1.049,2.069c0.197,4.797-0.729,35.844-0.835,36.782
			c0.05,0.898-0.36,1.304-1.265,1.177c-1.213,0-2.425,0-3.637,0c-0.016,0.131-0.033,0.262-0.05,0.393
			c1.071,0.507,6.293,1.557,7.745,1.818c5.01,0.898,9.986,2.092,15.035,2.646c3.927,0.429,7.826,1.106,11.775,1.387
			c5.749,0.41,11.495,0.845,17.248,1.209c4.37,0.277,43.54,1.098,52.001,0.772c3.918-0.151,29.036-2.434,33.548-3.129
			c4.057-0.628,8.122-1.221,12.185-1.809c0.896-0.13,1.891,0.041,2.765,0.318c0.732,0.231,0.934,0.997,0.483,1.667
			c-0.681,1.014-1.593,1.713-2.865,1.945c-7.863,1.432-15.743,2.719-23.728,3.315c-6.375,0.477-12.75,0.89-19.139,1.219
			c-10.549,0.545-21.095,0.457-31.638,0.334c-5.559-0.066-18.29-1.125-19.11-1.032c-1.275-0.033-4.207-0.395-4.46-0.4
			c-2.759-0.051-5.499-0.365-8.242-0.628c-3.871-0.371-14.885-1.366-16.538-1.366C105.617,92.528,135.665,96.49,138.457,96.703z"/>
		<path fill="#F299A4" d="M67.371,28.943c-1.815-1.154-3.554-2.295-5.266-3.584c-3.234-2.438-15.022-10.441-17.5-12.238
			c-1.087-0.79-2.037-0.793-3.096,0.04C38.326,15.665,1.696,41.397,0.457,41.455c-0.68,0.033-0.404-0.47-0.394-0.701
			c0.064-1.478,0.588-10.166,0.585-13.032c-0.001-1.76,0.641-2.857,2.268-3.762c7.994-4.45,35.375-20.147,41.1-23.492
			c1.221-0.712,1.974-0.645,2.988,0.426C53.92,8.204,69.501,24.427,70.31,25.289C69.43,26.542,68.855,28.139,67.371,28.943z"/>
		<path fill="#E62467" d="M67.371,28.943c1.584-1.579,2.059-2.401,2.937-3.656c4.51,4.018,8.263,8.43,12.722,12.852
			c0.842,0.92,1.471,1.696,1.622,2.113c0.2,0.547,0.366,0.763-0.114,1.063c-0.416,0.257-0.843,0.036-1.222-0.264
			C82.35,40.282,67.41,29.082,67.371,28.943z"/>
		<path fill="#F299A4" d="M105.621,92.364"/>
		<path fill="#F299A4" d="M83.832,79.714"/>
		<path fill="#F299A4" d="M83.51,82.527"/>
		<path fill="#F299A4" d="M84.112,60.508c-0.027-0.132-0.056-0.267-0.083-0.399c0.128,0.05,0.257,0.104,0.387,0.156
			C84.314,60.346,84.213,60.427,84.112,60.508z"/>
	</g>
	<path fill="#E62467" d="M141.68,125.418c-0.019-0.011-2.754-0.234-2.775-0.229c-0.114,0.322-1.215,3.216-0.561,4.157
		c0.234,0.325,0.386,0.501,0.575,0.814c0.703,0.663,0.841,0.589,1.066,0.646c0.537,0.065,1.408-0.543,1.695-1.001
		c0.363-0.584,0.955-1.639,1.156-1.987C142.959,127.665,143.27,125.212,141.68,125.418z"/>
</g>
<g enable-background="new    ">
	<path d="M102.221,30.552c-0.026-0.144-0.041-0.242-0.041-0.297c0-0.321,0.095-0.525,0.284-0.605
		c0.188-0.081,0.394-0.143,0.619-0.189c0.225-0.044,0.432-0.116,0.619-0.216c0.188-0.097,0.283-0.319,0.283-0.66
		c0-0.25-0.054-0.425-0.161-0.525c-0.108-0.098-0.163-0.299-0.163-0.606c0-0.178,0.019-0.321,0.055-0.43
		c0.034-0.109,0.072-0.212,0.108-0.309c0.036-0.099,0.072-0.207,0.107-0.323c0.036-0.116,0.054-0.272,0.054-0.47
		c0-0.197-0.019-0.354-0.054-0.471c-0.036-0.116-0.072-0.218-0.107-0.31c-0.036-0.089-0.073-0.188-0.108-0.295
		c-0.037-0.107-0.055-0.26-0.055-0.458c0-0.305,0.055-0.507,0.163-0.606c0.107-0.099,0.161-0.272,0.161-0.524
		c0-0.162-0.054-0.356-0.161-0.58c-0.108-0.225-0.248-0.443-0.417-0.659c-0.171-0.217-0.36-0.395-0.566-0.539
		c-0.207-0.144-0.399-0.216-0.579-0.216c-0.037,0-0.117,0.009-0.243,0.028c-0.036,0.018-0.084,0.113-0.148,0.282
		c-0.063,0.171-0.112,0.266-0.148,0.283c-0.018,0.018-0.067,0.04-0.147,0.066c-0.081,0.027-0.166,0.053-0.256,0.081
		c-0.09,0.026-0.178,0.05-0.27,0.066c-0.09,0.019-0.143,0.037-0.162,0.054c-0.036,0.037-0.085,0.13-0.148,0.281
		c-0.062,0.153-0.103,0.247-0.121,0.283c-0.018,0.018-0.072,0.063-0.161,0.134c-0.091,0.072-0.135,0.126-0.135,0.161
		c-0.018,0.073-0.044,0.198-0.081,0.378s-0.067,0.373-0.094,0.579c-0.026,0.207-0.05,0.408-0.067,0.605
		c-0.019,0.198-0.026,0.332-0.026,0.403c-0.054-0.018-0.153,0.013-0.297,0.094c-0.143,0.08-0.234,0.139-0.27,0.175
		c-0.017,0.126-0.027,0.208-0.027,0.244c0,0.34,0.058,0.659,0.175,0.955c0.116,0.296,0.175,0.624,0.175,0.982
		c-0.305,0-0.53-0.099-0.673-0.297c-0.144-0.196-0.216-0.448-0.216-0.753v-4.224c0-0.036-0.009-0.099-0.026-0.189
		c-0.019-0.091-0.04-0.179-0.067-0.269c-0.028-0.091-0.058-0.171-0.094-0.242c-0.037-0.073-0.062-0.117-0.081-0.133
		c-0.036-0.019-0.107-0.05-0.215-0.094c-0.108-0.044-0.22-0.081-0.337-0.109c-0.117-0.026-0.229-0.049-0.337-0.066
		c-0.108-0.018-0.188-0.018-0.243,0v-0.296c0-0.019,0.055-0.044,0.163-0.081c0.107-0.035,0.232-0.067,0.377-0.095
		c0.143-0.028,0.296-0.049,0.457-0.067c0.162-0.017,0.296-0.026,0.403-0.026c0.019,0,0.085,0.012,0.202,0.04
		c0.115,0.025,0.236,0.057,0.362,0.093c0.126,0.036,0.242,0.068,0.35,0.095c0.108,0.027,0.18,0.04,0.216,0.04
		c0.251,0.018,0.413,0.027,0.484,0.027c0.072,0,0.185-0.005,0.337-0.014c0.152-0.008,0.246-0.012,0.282-0.012
		c0.197,0,0.551-0.014,1.063-0.04c0.513-0.027,1.05-0.054,1.615-0.081c0.566-0.028,1.099-0.054,1.601-0.082
		c0.502-0.025,0.853-0.049,1.049-0.066c0.018-0.036,0.062-0.085,0.134-0.149c0.072-0.063,0.125-0.103,0.161-0.121
		c0-0.018,0.044-0.028,0.133-0.028c0.163,0,0.269,0.054,0.323,0.162c0.053,0.107,0.178,0.161,0.376,0.161
		c0.178,0,0.301-0.053,0.363-0.161c0.063-0.108,0.175-0.162,0.336-0.162c0.019,0,0.044,0,0.081,0c0.037,0,0.054,0.011,0.054,0.028
		c0.394,0.197,0.704,0.39,0.928,0.579c0.224,0.189,0.391,0.395,0.498,0.619c0.107,0.225,0.175,0.489,0.202,0.793
		c0.026,0.304,0.05,0.664,0.067,1.078c0,0.178,0.013,0.498,0.041,0.955c0.025,0.458,0.053,0.938,0.081,1.439
		c0.027,0.503,0.052,0.979,0.081,1.426c0.027,0.449,0.049,0.764,0.068,0.942c0.125,0.091,0.254,0.22,0.391,0.391
		c0.133,0.17,0.259,0.358,0.376,0.565c0.116,0.206,0.209,0.407,0.282,0.606c0.072,0.197,0.108,0.366,0.108,0.51
		c0,0.037,0.003,0.105,0.014,0.202c0.009,0.099,0.003,0.208-0.014,0.323c-0.019,0.116-0.049,0.225-0.093,0.321
		c-0.046,0.099-0.122,0.158-0.229,0.176c-0.054,0-0.153,0-0.297,0c-0.144,0-0.295,0.004-0.457,0.013
		c-0.163,0.01-0.323,0.013-0.485,0.013c-0.144,0-0.241,0-0.295,0c-0.322,0-0.727,0-1.212,0c-0.466,0-0.862-0.108-1.184-0.322v-0.108
		c0-0.465,0.147-0.874,0.443-1.224c0.296-0.349,0.614-0.65,0.956-0.901v-6.453c0-0.089-0.046-0.171-0.135-0.243
		c-0.089-0.071-0.197-0.129-0.322-0.174c-0.126-0.045-0.252-0.081-0.377-0.108c-0.125-0.028-0.225-0.041-0.296-0.041
		c-0.162,0-0.364,0.081-0.606,0.243c-0.24,0.162-0.48,0.355-0.712,0.579c-0.233,0.225-0.435,0.444-0.606,0.66
		c-0.17,0.217-0.264,0.378-0.281,0.485c0,0.035,0,0.126,0,0.269c0,0.144,0,0.296,0,0.457c0,0.144,0,0.288,0,0.431
		c0,0.144,0,0.234,0,0.269c-0.019,0.019-0.073,0.063-0.162,0.134c-0.091,0.072-0.135,0.116-0.135,0.134
		c0,0.018-0.004,0.116-0.013,0.294c-0.011,0.18-0.014,0.316-0.014,0.404c0,0.233,0.019,0.399,0.055,0.498
		c0.036,0.098,0.072,0.176,0.108,0.228c0.035,0.054,0.071,0.104,0.106,0.149c0.036,0.045,0.055,0.131,0.055,0.256
		c0,0.144-0.055,0.247-0.162,0.31c-0.108,0.063-0.163,0.192-0.163,0.39c0,0.216,0.063,0.427,0.189,0.633s0.265,0.417,0.417,0.632
		c0.153,0.215,0.293,0.43,0.418,0.646c0.126,0.215,0.188,0.43,0.188,0.646c0,0.414-0.13,0.651-0.39,0.714
		c-0.261,0.062-0.561,0.093-0.902,0.093h-0.457c-0.09-0.018-0.238-0.04-0.445-0.067c-0.206-0.027-0.431-0.053-0.671-0.081
		c-0.244-0.027-0.472-0.053-0.688-0.081c-0.214-0.028-0.358-0.049-0.43-0.067C102.271,30.784,102.248,30.696,102.221,30.552z
		 M97.793,29.152c0.019-0.017,0.067-0.04,0.148-0.067c0.082-0.028,0.171-0.054,0.27-0.081c0.098-0.027,0.193-0.054,0.282-0.081
		c0.089-0.028,0.144-0.05,0.162-0.068c0.019-0.016,0.059-0.111,0.121-0.282c0.063-0.17,0.113-0.265,0.148-0.282
		c0.019,0,0.095-0.005,0.228-0.014c0.135-0.009,0.247-0.013,0.336-0.013c0.073,0,0.18,0.005,0.323,0.013
		c0.144,0.01,0.225,0.014,0.243,0.014c0.019,0.018,0.09,0.114,0.215,0.282c0.125,0.171,0.257,0.369,0.39,0.591
		c0.135,0.225,0.256,0.443,0.364,0.661c0.108,0.216,0.162,0.359,0.162,0.43c0,0.216-0.05,0.427-0.148,0.633
		c-0.099,0.207-0.238,0.372-0.418,0.497c-0.036-0.196-0.206-0.296-0.511-0.296c-0.305,0-0.632-0.013-0.982-0.04
		c-0.352-0.025-0.67-0.125-0.957-0.295c-0.286-0.171-0.43-0.535-0.43-1.09C97.74,29.591,97.758,29.421,97.793,29.152z"/>
	<path d="M115.435,27.388c0.009-0.242,0.013-0.408,0.013-0.497c0.107-0.054,0.206-0.148,0.296-0.283
		c0.091-0.133,0.17-0.278,0.242-0.431c0.073-0.152,0.134-0.291,0.188-0.417c0.054-0.126,0.09-0.216,0.109-0.269
		c0.161-0.018,0.443-0.067,0.847-0.148c0.404-0.081,0.826-0.166,1.265-0.256c0.44-0.09,0.856-0.176,1.251-0.256
		c0.395-0.081,0.673-0.139,0.833-0.174c0.055-0.018,0.154-0.058,0.297-0.122c0.144-0.062,0.232-0.113,0.269-0.147
		c-0.018,0.053,0.014,0.153,0.095,0.296c0.08,0.144,0.148,0.234,0.2,0.269c0.197,0.019,0.323,0.026,0.377,0.026
		c0.053,0,0.138-0.003,0.256-0.012c0.116-0.01,0.184-0.014,0.202-0.014c0.036-0.018,0.13-0.067,0.282-0.147
		c0.152-0.081,0.246-0.13,0.282-0.148c0.019,0,0.062,0,0.135,0c0.089,0,0.178,0,0.269,0c0.107,0,0.196,0,0.269,0
		c0.089,0,0.144,0,0.162,0c0.019,0,0.063-0.045,0.134-0.134c0.073-0.089,0.117-0.133,0.134-0.133
		c0.09-0.037,0.278-0.091,0.564-0.163c0.288-0.073,0.476-0.116,0.566-0.134v-0.566c-0.054,0.019-0.134,0.022-0.242,0.013
		c-0.107-0.009-0.22-0.031-0.336-0.067c-0.116-0.036-0.229-0.072-0.337-0.106c-0.108-0.037-0.179-0.073-0.216-0.108
		c-0.019-0.019-0.041-0.085-0.067-0.203c-0.026-0.116-0.05-0.237-0.067-0.363c-0.019-0.126-0.04-0.247-0.067-0.362
		c-0.028-0.116-0.05-0.184-0.067-0.202c-0.037-0.019-0.121-0.04-0.257-0.067c-0.133-0.028-0.281-0.053-0.442-0.081
		c-0.162-0.028-0.309-0.053-0.445-0.08c-0.134-0.028-0.22-0.041-0.256-0.041c-0.018,0-0.067-0.018-0.148-0.054
		c-0.081-0.036-0.171-0.067-0.269-0.093c-0.099-0.028-0.189-0.055-0.269-0.081c-0.08-0.028-0.131-0.04-0.148-0.04
		c-0.018-0.019-0.081-0.028-0.188-0.028s-0.188,0-0.243,0c-0.304,0-0.538,0.064-0.7,0.189c-0.161,0.126-0.292,0.281-0.39,0.471
		c-0.098,0.189-0.179,0.396-0.241,0.621c-0.063,0.224-0.158,0.43-0.283,0.619s-0.301,0.344-0.525,0.471
		c-0.225,0.127-0.543,0.189-0.957,0.189c-0.251,0-0.435-0.055-0.552-0.163c-0.115-0.108-0.201-0.242-0.254-0.403
		c-0.055-0.162-0.086-0.34-0.095-0.539c-0.009-0.196-0.031-0.394-0.067-0.591v-0.163c0-0.178,0.09-0.406,0.27-0.687
		c0.178-0.278,0.394-0.538,0.645-0.779c0.251-0.242,0.512-0.454,0.78-0.632c0.269-0.179,0.502-0.269,0.7-0.269
		c0.091,0,0.162,0.013,0.216,0.04s0.108,0.064,0.163,0.108c0.052,0.044,0.112,0.081,0.174,0.108c0.063,0.025,0.157,0.04,0.284,0.04
		c0.144,0,0.255-0.018,0.336-0.054c0.081-0.035,0.156-0.072,0.228-0.107c0.073-0.036,0.149-0.072,0.229-0.108
		c0.081-0.037,0.193-0.055,0.337-0.055c0.054,0,0.188,0.01,0.402,0.028c0.037,0.017,0.131,0.113,0.283,0.281
		c0.152,0.172,0.246,0.266,0.282,0.284c0.019,0,0.081,0,0.188,0c0.125,0,0.251,0,0.377,0c0.125,0,0.243,0,0.35,0
		c0.108,0,0.179,0,0.216,0c0.233,0.037,0.449,0.103,0.646,0.202c0.197,0.099,0.385,0.207,0.565,0.322
		c0.179,0.116,0.363,0.233,0.551,0.349c0.189,0.117,0.391,0.201,0.606,0.257v3.365c0.125-0.019,0.223,0,0.295,0.053
		c0.073,0.053,0.117,0.13,0.135,0.229c0.017,0.1,0.027,0.202,0.027,0.309c0,0.09,0,0.162,0,0.215c0,0.306-0.055,0.507-0.163,0.606
		c-0.106,0.099-0.162,0.273-0.162,0.526v0.297c0.019,0.018,0.067,0.062,0.148,0.133c0.081,0.073,0.13,0.117,0.149,0.135
		c0,0.036,0.013,0.108,0.04,0.215c0.027,0.108,0.058,0.225,0.093,0.351c0.036,0.126,0.067,0.246,0.095,0.363
		c0.028,0.115,0.041,0.184,0.041,0.202c0.017,0.035,0.063,0.09,0.134,0.16c0.072,0.073,0.124,0.108,0.162,0.108
		c0.054,0.018,0.144,0.045,0.269,0.08c0.125,0.036,0.265,0.068,0.417,0.094c0.153,0.026,0.297,0.054,0.431,0.081
		c0.135,0.027,0.228,0.04,0.283,0.04v0.134v0.134c-0.019,0.054-0.04,0.148-0.067,0.283c-0.028,0.133-0.054,0.273-0.081,0.417
		c-0.027,0.144-0.054,0.282-0.081,0.416c-0.027,0.135-0.051,0.229-0.067,0.282c-0.054,0-0.145,0-0.269,0
		c-0.109,0-0.23,0.005-0.364,0.015c-0.134,0.009-0.265,0.012-0.391,0.012c-0.108,0-0.188,0-0.242,0
		c-0.467,0-0.893-0.052-1.278-0.161c-0.386-0.107-0.804-0.161-1.252-0.161c-0.107,0-0.273,0.03-0.497,0.093
		c-0.225,0.063-0.462,0.144-0.713,0.243c-0.252,0.099-0.485,0.196-0.701,0.295c-0.216,0.1-0.367,0.175-0.458,0.229h-3.928
		c-0.055-0.125-0.144-0.218-0.27-0.282c-0.125-0.063-0.266-0.109-0.418-0.135c-0.151-0.027-0.294-0.049-0.43-0.066
		c-0.134-0.019-0.229-0.045-0.282-0.082c-0.126-0.072-0.239-0.241-0.337-0.511c-0.098-0.269-0.188-0.561-0.269-0.875
		c-0.082-0.314-0.144-0.619-0.188-0.916c-0.045-0.297-0.067-0.506-0.067-0.631C115.422,27.797,115.426,27.631,115.435,27.388z
		 M117.897,28.869c0.144,0.153,0.26,0.336,0.35,0.551h2.233c0.019-0.036,0.063-0.09,0.135-0.162
		c0.072-0.072,0.124-0.108,0.161-0.108c0.036-0.017,0.134-0.04,0.297-0.067c0.162-0.028,0.337-0.053,0.525-0.08
		c0.188-0.027,0.368-0.054,0.538-0.081c0.17-0.028,0.273-0.05,0.309-0.069c0.019,0,0.054-0.026,0.108-0.079
		c0.054-0.053,0.113-0.116,0.175-0.189c0.062-0.072,0.12-0.133,0.174-0.189c0.055-0.053,0.09-0.09,0.108-0.107
		c0.019,0,0.084-0.01,0.202-0.027c0.117-0.019,0.243-0.04,0.377-0.068c0.134-0.027,0.256-0.053,0.363-0.081
		c0.107-0.027,0.17-0.058,0.188-0.094c0.019-0.017,0.036-0.116,0.055-0.296c0.018-0.179,0.026-0.315,0.026-0.404
		s-0.009-0.225-0.026-0.404c-0.02-0.178-0.037-0.278-0.055-0.296c-0.018-0.018-0.081-0.058-0.188-0.121
		c-0.108-0.062-0.229-0.121-0.363-0.174c-0.134-0.054-0.26-0.109-0.377-0.162c-0.117-0.053-0.185-0.09-0.202-0.107
		c-0.019-0.019-0.063-0.068-0.133-0.149c-0.073-0.081-0.116-0.12-0.135-0.12c-0.018,0-0.058-0.005-0.121-0.013
		c-0.063-0.01-0.112-0.013-0.148-0.013c-0.251,0-0.538,0.044-0.861,0.134c-0.321,0.091-0.51,0.287-0.565,0.591h-2.798
		c-0.019,0-0.051,0.058-0.094,0.176c-0.045,0.116-0.099,0.256-0.162,0.417c-0.063,0.161-0.121,0.331-0.176,0.511
		c-0.053,0.179-0.098,0.323-0.133,0.431v0.296C117.683,28.533,117.753,28.718,117.897,28.869z"/>
	<path d="M135.74,29.985c0.233,0,0.44,0.052,0.62,0.149c0.178,0.098,0.394,0.148,0.647,0.148c0.035,0,0.125,0,0.269,0
		c0.161,0,0.259-0.01,0.296-0.028c0.018-0.071,0.041-0.215,0.066-0.43c0.028-0.217,0.055-0.44,0.082-0.673
		c0.028-0.233,0.054-0.458,0.081-0.672c0.026-0.215,0.04-0.367,0.04-0.458c0-0.035,0-0.133,0-0.294c0-0.18,0-0.361,0-0.54
		c0-0.196,0-0.377,0-0.538c0-0.16,0-0.269,0-0.321c0-0.036,0.018-0.12,0.054-0.256c0.035-0.134,0.067-0.278,0.094-0.431
		c0.027-0.152,0.057-0.3,0.094-0.444c0.036-0.144,0.055-0.233,0.055-0.269v-0.432c0-0.359-0.051-0.695-0.149-1.008
		c-0.098-0.314-0.148-0.661-0.148-1.037c0-0.556,0.018-1.067,0.054-1.534c0.035-0.466,0.115-0.995,0.243-1.588
		c0-0.037,0.044-0.13,0.133-0.283c0.089-0.153,0.135-0.246,0.135-0.282c0.017-0.162,0.026-0.26,0.026-0.296
		s-0.004-0.085-0.014-0.148c-0.01-0.062-0.012-0.102-0.012-0.121c0-0.017-0.041-0.063-0.121-0.133
		c-0.082-0.073-0.132-0.116-0.149-0.135c-0.019-0.018-0.054-0.085-0.108-0.202c-0.054-0.115-0.107-0.242-0.162-0.377
		c-0.053-0.135-0.113-0.256-0.174-0.363c-0.064-0.108-0.104-0.17-0.121-0.188c-0.037-0.018-0.144-0.027-0.323-0.027
		c-0.161,0-0.336,0.005-0.524,0.014c-0.188,0.009-0.363,0.013-0.526,0.013c-0.162,0-0.259,0-0.295,0
		c-0.199-0.018-0.399-0.063-0.605-0.133c-0.207-0.073-0.396-0.171-0.566-0.297c-0.171-0.126-0.31-0.279-0.417-0.457
		c-0.107-0.18-0.162-0.386-0.162-0.62c0.036,0,0.112,0.005,0.229,0.015c0.116,0.009,0.238,0.018,0.364,0.026
		c0.125,0.01,0.242,0.023,0.35,0.041c0.108,0.019,0.188,0.026,0.244,0.026c0.017,0,0.061,0.045,0.133,0.135
		c0.072,0.088,0.117,0.144,0.135,0.161h0.296c0.125,0,0.246-0.032,0.363-0.094c0.115-0.063,0.232-0.13,0.35-0.203
		c0.115-0.072,0.237-0.137,0.363-0.201c0.125-0.063,0.279-0.094,0.457-0.094c0.019,0,0.062,0.01,0.135,0.027
		c0.107,0.019,0.237,0.04,0.39,0.068c0.151,0.027,0.3,0.053,0.444,0.08c0.143,0.028,0.332,0.068,0.566,0.121
		c0.018,0.019,0.04,0.08,0.066,0.188s0.055,0.229,0.08,0.364c0.027,0.134,0.055,0.26,0.082,0.376
		c0.026,0.116,0.049,0.185,0.066,0.202c0,0.019,0.041,0.063,0.122,0.135c0.081,0.071,0.13,0.116,0.147,0.133
		c0.019,0.037,0.045,0.099,0.082,0.188c0.036,0.091,0.067,0.18,0.094,0.269c0.027,0.092,0.049,0.172,0.067,0.244
		c0.018,0.073,0.027,0.116,0.027,0.134v4.225c0,0.197-0.059,0.373-0.175,0.524c-0.117,0.154-0.248,0.31-0.391,0.472
		c-0.144,0.161-0.274,0.323-0.392,0.485c-0.116,0.161-0.174,0.332-0.174,0.51c0,0.037,0,0.091,0,0.163
		c0,0.053,0.009,0.081,0.026,0.081c0.019,0.018,0.067,0.04,0.147,0.067c0.081,0.028,0.171,0.055,0.269,0.081
		c0.099,0.027,0.188,0.054,0.27,0.081c0.081,0.027,0.129,0.05,0.147,0.068c0.144,0.179,0.229,0.466,0.257,0.86
		c0.027,0.397,0.041,0.718,0.041,0.969c0,0.305-0.054,0.566-0.161,0.779c-0.107,0.216-0.162,0.46-0.162,0.728
		c0,0.36,0.076,0.74,0.228,1.144c0.152,0.403,0.272,0.776,0.363,1.117c0.018,0,0.063,0.005,0.134,0.014
		c0.073,0.009,0.116,0.014,0.134,0.014c0.162,0,0.311-0.045,0.444-0.135c0.135-0.089,0.265-0.191,0.391-0.309
		c0.124-0.117,0.255-0.22,0.391-0.309c0.134-0.089,0.282-0.133,0.444-0.133c0.034,0,0.089,0.003,0.161,0.013
		c0.073,0.01,0.116,0.012,0.134,0.012c0.055,0,0.148,0.013,0.283,0.041c0.133,0.026,0.278,0.053,0.431,0.08
		c0.152,0.028,0.292,0.054,0.417,0.082c0.126,0.026,0.216,0.049,0.269,0.066c-0.054,0.18-0.139,0.373-0.255,0.579
		c-0.117,0.207-0.247,0.403-0.391,0.592c-0.145,0.188-0.306,0.355-0.485,0.497c-0.179,0.144-0.359,0.243-0.538,0.297
		c-0.073,0-0.215,0-0.43,0v-0.888c-0.02-0.019-0.063-0.054-0.134-0.108c-0.073-0.055-0.166-0.108-0.282-0.162
		c-0.116-0.054-0.211-0.054-0.283,0c-0.162,0.143-0.251,0.287-0.269,0.43c-0.018,0.144-0.031,0.269-0.04,0.376
		c-0.009,0.109-0.049,0.194-0.121,0.258c-0.072,0.063-0.252,0.093-0.538,0.093c-0.162,0-0.292-0.018-0.39-0.053
		c-0.1-0.036-0.194-0.073-0.283-0.108c-0.09-0.035-0.189-0.073-0.296-0.108c-0.108-0.037-0.251-0.053-0.431-0.053
		c-0.233,0-0.444,0.017-0.633,0.053c-0.188,0.035-0.373,0.073-0.55,0.108c-0.18,0.036-0.368,0.073-0.566,0.108
		c-0.197,0.036-0.413,0.053-0.646,0.053c-0.036,0-0.108,0-0.216,0c-0.108,0-0.219,0-0.337,0c-0.117,0-0.229,0-0.336,0
		c-0.108,0-0.188,0-0.243,0c0.108-0.053,0.197-0.148,0.269-0.282c0.073-0.135,0.13-0.28,0.175-0.431
		c0.045-0.153,0.076-0.296,0.094-0.431c0.018-0.135,0.027-0.22,0.027-0.257L135.74,29.985L135.74,29.985z M142.064,10.905v0.566
		c-0.053-0.109-0.148-0.198-0.282-0.271c-0.134-0.072-0.279-0.129-0.431-0.174c-0.154-0.044-0.296-0.076-0.431-0.095
		c-0.135-0.017-0.22-0.026-0.256-0.026H142.064z M142.671,20.11c0.027,0.106,0.058,0.219,0.094,0.335
		c0.037,0.117,0.068,0.228,0.094,0.337c0.027,0.108,0.041,0.188,0.041,0.241v0.134c0,0.144-0.014,0.269-0.041,0.377
		c-0.028,0.107-0.062,0.216-0.107,0.323c-0.046,0.108-0.081,0.225-0.108,0.35c-0.027,0.125-0.041,0.288-0.041,0.484
		c0,0.449,0.062,0.866,0.189,1.251c0.126,0.386,0.189,0.811,0.189,1.278h-0.968c0-0.054,0-0.144,0-0.27
		c0-0.143,0.004-0.286,0.013-0.431c0.009-0.144,0.019-0.282,0.027-0.417c0.008-0.135,0.013-0.229,0.013-0.283
		c0-0.161,0.014-0.395,0.04-0.7c0.028-0.305,0.055-0.623,0.081-0.955c0.026-0.332,0.055-0.633,0.082-0.901
		c0.026-0.269,0.049-0.449,0.067-0.538c0.019-0.073,0.062-0.216,0.135-0.431c0.072-0.215,0.125-0.35,0.162-0.403
		C142.63,19.93,142.644,20.002,142.671,20.11z M142.469,12.467c-0.053,0-0.1-0.044-0.135-0.135
		c-0.018-0.089,0.027-0.133,0.135-0.133c0.125,0,0.179,0.044,0.162,0.133C142.593,12.422,142.54,12.467,142.469,12.467z
		 M142.63,14.565V16.8l-0.297,0.298v-2.261L142.63,14.565z M146.128,25.088c0,0.052-0.045,0.098-0.134,0.134
		c-0.09,0.018-0.135-0.028-0.135-0.134c0-0.126,0.046-0.179,0.135-0.162C146.083,24.962,146.128,25.016,146.128,25.088z"/>
	<path d="M150.946,22.625c0.197-0.762,0.341-1.484,0.431-2.167v1.965c0.055,0.018,0.171,0.058,0.35,0.121
		c0.179,0.062,0.296,0.113,0.351,0.148c0.018,0.018,0.062,0.068,0.134,0.148c0.072,0.08,0.125,0.121,0.161,0.121
		c0.036,0.018,0.139,0.01,0.311-0.028c0.17-0.036,0.273-0.054,0.309-0.054c0-0.395,0.045-0.686,0.134-0.875
		c0.09-0.188,0.207-0.341,0.35-0.457c0.144-0.117,0.314-0.23,0.512-0.337c0.196-0.108,0.403-0.269,0.619-0.484
		c0.019-0.036,0.063-0.13,0.134-0.283c0.073-0.152,0.116-0.246,0.134-0.283c0.072-0.017,0.117-0.026,0.134-0.026
		c0.162,0,0.274,0.054,0.337,0.162c0.062,0.107,0.192,0.162,0.391,0.162c0.108,0,0.215-0.01,0.322-0.027
		c0.109-0.018,0.178-0.109,0.216-0.27h3.929c0.019,0.054,0.063,0.154,0.134,0.297c0.073,0.144,0.125,0.233,0.161,0.269
		c0.017,0.037,0.108,0.085,0.269,0.148c0.161,0.062,0.251,0.113,0.269,0.148c0.197,0.198,0.381,0.435,0.552,0.712
		c0.169,0.279,0.322,0.571,0.458,0.875c0.133,0.305,0.241,0.615,0.322,0.928c0.081,0.315,0.121,0.606,0.121,0.875
		c0,0.073-0.01,0.243-0.027,0.512c-0.036,0.072-0.094,0.166-0.175,0.282c-0.081,0.117-0.166,0.23-0.256,0.338
		c-0.09,0.107-0.174,0.196-0.255,0.269c-0.082,0.072-0.14,0.107-0.176,0.107h-6.164c-0.053,0.162-0.125,0.273-0.215,0.336
		c-0.09,0.064-0.185,0.121-0.283,0.176c-0.099,0.054-0.185,0.117-0.255,0.189c-0.073,0.072-0.108,0.197-0.108,0.376
		c0,0.198,0.013,0.377,0.041,0.54c0.027,0.16,0.112,0.321,0.255,0.483c0.054,0,0.171,0.005,0.351,0.014
		c0.178,0.009,0.296,0.013,0.35,0.013c0.215,0,0.385-0.018,0.51-0.053c0.126-0.036,0.236-0.073,0.336-0.108
		c0.099-0.036,0.211-0.072,0.337-0.108c0.125-0.035,0.297-0.052,0.512-0.052c0.054,0,0.17,0,0.35,0c0.178,0,0.296,0.009,0.35,0.026
		c-0.251,0.251-0.547,0.489-0.888,0.713s-0.7,0.355-1.077,0.389c0.304,0.055,0.632,0.167,0.982,0.337
		c0.35,0.171,0.676,0.256,0.981,0.256c0.037,0,0.125-0.009,0.269-0.026c0.037,0,0.085-0.045,0.148-0.134s0.113-0.134,0.148-0.134
		c0.035-0.017,0.121-0.04,0.255-0.066c0.134-0.028,0.283-0.054,0.443-0.082c0.161-0.028,0.31-0.054,0.444-0.081
		c0.134-0.026,0.219-0.049,0.255-0.066c0.144-0.073,0.237-0.171,0.282-0.297c0.044-0.126,0.099-0.251,0.163-0.376
		c0.062-0.126,0.156-0.238,0.282-0.336c0.125-0.099,0.35-0.149,0.672-0.149c0.233,0,0.431,0.018,0.591,0.054
		c0.162,0.036,0.243,0.215,0.243,0.539c0,0.466-0.131,0.892-0.391,1.278s-0.583,0.713-0.968,0.982
		c-0.385,0.268-0.813,0.476-1.278,0.62c-0.467,0.143-0.897,0.215-1.292,0.215c-0.844,0-1.628-0.057-2.354-0.174
		c-0.727-0.117-1.432-0.436-2.113-0.957c-0.089-0.071-0.192-0.196-0.309-0.377c-0.116-0.178-0.229-0.376-0.336-0.591
		c-0.108-0.215-0.207-0.417-0.297-0.605c-0.09-0.188-0.152-0.319-0.189-0.39c-0.018-0.019-0.057-0.063-0.12-0.134
		c-0.063-0.073-0.113-0.117-0.148-0.135c-0.538-0.358-0.959-0.807-1.265-1.345s-0.457-1.148-0.457-1.83
		C150.65,24.129,150.747,23.388,150.946,22.625z M151.484,25.626c0,0.197,0.028,0.385,0.081,0.565
		c0.054,0.18,0.14,0.332,0.257,0.457c0.115,0.127,0.299,0.208,0.551,0.244v-0.269c0-0.198-0.05-0.364-0.148-0.499
		c-0.099-0.134-0.147-0.3-0.147-0.498v-0.134c0.036-0.018,0.133-0.059,0.296-0.122c0.162-0.062,0.252-0.111,0.268-0.147
		c0.144-0.197,0.239-0.489,0.283-0.875c0.044-0.385,0.067-0.688,0.067-0.9c-0.197,0-0.35,0.022-0.457,0.066
		c-0.108,0.046-0.211,0.1-0.309,0.163c-0.1,0.062-0.203,0.134-0.31,0.215c-0.108,0.082-0.242,0.149-0.402,0.203
		c0,0.09-0.005,0.256-0.014,0.497c-0.01,0.242-0.014,0.408-0.014,0.499C151.484,25.249,151.484,25.428,151.484,25.626z
		 M156.745,21.374c-0.35,0.073-0.697,0.18-1.038,0.322c-0.341,0.144-0.637,0.323-0.888,0.539c-0.252,0.216-0.376,0.458-0.376,0.727
		h2.69c-0.018-0.179,0.027-0.322,0.134-0.432c0.106-0.106,0.242-0.193,0.403-0.255c0.163-0.063,0.322-0.103,0.484-0.121
		s0.287-0.027,0.377-0.027c0-0.019,0.004-0.063,0.013-0.135c0.01-0.072,0.014-0.115,0.014-0.133c0-0.269-0.112-0.435-0.336-0.497
		c-0.225-0.063-0.444-0.095-0.66-0.095C157.368,21.266,157.095,21.302,156.745,21.374z M154.552,23.757
		c0.073,0.08,0.162,0.148,0.269,0.201c0.108,0.054,0.22,0.113,0.337,0.175c0.116,0.063,0.21,0.148,0.282,0.257h3.66
		c-0.018-0.179,0.027-0.328,0.134-0.445c0.107-0.116,0.243-0.207,0.403-0.269c0.161-0.063,0.323-0.103,0.485-0.121
		c0.16-0.019,0.286-0.028,0.376-0.028V23.26c0-0.108-0.036-0.229-0.107-0.364c-0.073-0.133-0.157-0.266-0.257-0.39
		c-0.099-0.125-0.192-0.247-0.281-0.362c-0.092-0.116-0.162-0.211-0.216-0.282c-0.019,0.036-0.058,0.129-0.121,0.282
		c-0.063,0.152-0.113,0.247-0.148,0.282c-0.054,0.073-0.125,0.161-0.216,0.269c-0.09,0.109-0.178,0.217-0.269,0.322
		c-0.089,0.107-0.206,0.234-0.35,0.377h-4.09C154.444,23.554,154.48,23.675,154.552,23.757z M156.705,18.899
		c-0.216,0-0.36-0.045-0.431-0.134c-0.037-0.036-0.004-0.063,0.094-0.08c0.098-0.019,0.21-0.028,0.337-0.028
		c0.125,0,0.233,0.01,0.321,0.028c0.091,0.018,0.125,0.044,0.109,0.08C157.063,18.853,156.919,18.899,156.705,18.899z
		 M158.844,26.474c0.008,0.063,0.014,0.113,0.014,0.148c0,0.161-0.04,0.3-0.122,0.417c-0.081,0.117-0.246,0.166-0.497,0.147v-0.134
		v-0.161c0.036-0.036,0.125-0.131,0.268-0.283c0.144-0.153,0.244-0.246,0.297-0.282C158.821,26.362,158.835,26.411,158.844,26.474z
		 M158.885,21.59c0,0.178,0.072,0.269,0.216,0.269c0.144,0,0.216-0.09,0.216-0.269c0-0.198-0.072-0.298-0.216-0.298
		C158.956,21.294,158.885,21.391,158.885,21.59z"/>
	<path d="M170.982,29.259c0.063,0.107,0.193,0.162,0.391,0.162c0.143,0,0.251-0.04,0.322-0.121c0.072-0.08,0.126-0.184,0.161-0.309
		c0.037-0.125,0.054-0.251,0.054-0.376c0-0.144,0-0.269,0-0.378v-0.241c-0.036-0.054-0.148-0.116-0.337-0.189
		c-0.189-0.072-0.31-0.098-0.362-0.08v-5.06c-0.092-0.108-0.18-0.242-0.269-0.405c-0.092-0.16-0.18-0.318-0.27-0.47
		c-0.09-0.153-0.193-0.282-0.309-0.39c-0.116-0.108-0.246-0.163-0.391-0.163c-0.252,0-0.462,0.059-0.632,0.175
		c-0.17,0.117-0.381,0.175-0.632,0.175c0-0.521,0.116-0.894,0.35-1.117c0.233-0.225,0.619-0.338,1.156-0.338h0.297
		c0.036,0.019,0.126,0.067,0.269,0.148c0.144,0.081,0.232,0.132,0.269,0.149c0.019,0,0.072,0,0.162,0c0.089,0,0.179,0,0.269,0
		c0.09,0,0.18,0,0.269,0c0.089,0,0.143,0,0.161,0c0.037,0.018,0.125,0.113,0.269,0.282c0.143,0.171,0.233,0.265,0.269,0.282
		c0.019,0,0.076,0.004,0.175,0.013c0.098,0.011,0.175,0.014,0.229,0.014c0.053,0,0.138-0.004,0.256-0.014
		c0.116-0.01,0.185-0.013,0.202-0.013c0.019-0.017,0.063-0.067,0.134-0.148c0.072-0.081,0.116-0.13,0.133-0.148
		c0.054-0.017,0.148-0.04,0.283-0.068c0.134-0.027,0.273-0.053,0.417-0.081c0.142-0.026,0.281-0.053,0.417-0.079
		c0.133-0.028,0.228-0.041,0.282-0.041c0-0.036,0.004-0.109,0.012-0.217c0.011-0.108,0.014-0.178,0.014-0.215
		c0-0.252-0.014-0.463-0.04-0.633c-0.027-0.171-0.113-0.381-0.255-0.633h0.134h0.134c0.019,0.019,0.062,0.068,0.134,0.148
		c0.073,0.081,0.125,0.132,0.161,0.149c0.054,0.018,0.144,0.04,0.269,0.067c0.125,0.026,0.265,0.052,0.417,0.081
		c0.153,0.028,0.296,0.052,0.431,0.081c0.135,0.027,0.228,0.04,0.282,0.04l-0.296,0.269c0.053,0,0.134,0.014,0.241,0.04
		c0.108,0.028,0.22,0.059,0.338,0.094c0.115,0.036,0.229,0.068,0.336,0.094c0.108,0.027,0.18,0.05,0.216,0.067
		c0.018,0,0.063,0.045,0.135,0.135c0.072,0.09,0.115,0.133,0.135,0.133c0.251,0.126,0.48,0.225,0.687,0.296
		c0.206,0.073,0.385,0.153,0.537,0.242c0.153,0.09,0.273,0.225,0.364,0.404c0.089,0.18,0.134,0.44,0.134,0.78
		c0,0.036-0.01,0.116-0.027,0.242l-1.399,1.4c-0.037,0.036-0.167-0.023-0.391-0.175c-0.224-0.153-0.463-0.335-0.713-0.551
		c-0.253-0.215-0.494-0.417-0.729-0.605c-0.232-0.188-0.376-0.301-0.43-0.337c-0.018-0.018-0.059-0.009-0.121,0.027
		c-0.063,0.036-0.112,0.052-0.148,0.052v2.719h-0.43v-2.799c-0.449,0.036-0.791,0.139-1.022,0.309
		c-0.235,0.171-0.414,0.385-0.54,0.646c-0.125,0.259-0.218,0.552-0.281,0.875c-0.063,0.323-0.148,0.647-0.256,0.97
		c0,0.018-0.045,0.062-0.133,0.133c-0.091,0.072-0.135,0.117-0.135,0.134c0,0.018-0.005,0.076-0.013,0.175
		c-0.011,0.099-0.014,0.175-0.014,0.229c0,0.053,0.004,0.139,0.014,0.256c0.008,0.116,0.013,0.184,0.013,0.202
		c0.019,0.107,0.049,0.292,0.095,0.552c0.044,0.26,0.098,0.538,0.161,0.834c0.062,0.297,0.12,0.579,0.174,0.849
		c0.055,0.269,0.098,0.457,0.135,0.565c0.161,0.305,0.358,0.51,0.591,0.619c0.233,0.107,0.458,0.188,0.672,0.243
		c0.217,0.053,0.413,0.112,0.593,0.175c0.178,0.063,0.304,0.185,0.377,0.363c-0.053,0-0.148,0.01-0.283,0.027
		c-0.133,0.02-0.278,0.041-0.43,0.069c-0.152,0.027-0.292,0.058-0.417,0.093c-0.125,0.036-0.216,0.063-0.269,0.081
		c-0.144,0.073-0.237,0.17-0.281,0.296c-0.047,0.127-0.114,0.253-0.203,0.378c-0.09,0.126-0.238,0.238-0.444,0.336
		c-0.207,0.1-0.534,0.148-0.982,0.148c-0.413,0-0.757-0.052-1.037-0.161c-0.278-0.108-0.605-0.161-0.982-0.161
		c-0.179,0-0.321,0.017-0.43,0.053c-0.108,0.036-0.212,0.081-0.309,0.134c-0.1,0.053-0.203,0.103-0.311,0.148
		c-0.107,0.044-0.259,0.066-0.458,0.066c0-0.358,0.028-0.623,0.082-0.792c0.054-0.17,0.143-0.314,0.269-0.431
		c0.124-0.116,0.282-0.233,0.47-0.35c0.188-0.117,0.417-0.283,0.687-0.498c0.019-0.019,0.064-0.068,0.135-0.149
		c0.072-0.08,0.125-0.119,0.162-0.119c0-0.019,0.044-0.028,0.134-0.028C170.806,29.098,170.918,29.152,170.982,29.259z
		 M175.543,27.59c0-0.053,0.036-0.17,0.107-0.35c0.073-0.179,0.126-0.295,0.162-0.35h0.135c0.196,0,0.372,0.044,0.525,0.134
		c0.153,0.091,0.229,0.234,0.229,0.432c0,0.286-0.132,0.501-0.391,0.646c-0.259,0.143-0.515,0.215-0.766,0.215
		c-0.037,0-0.09,0-0.162,0c-0.072,0-0.107-0.009-0.107-0.026c-0.053-0.019-0.153-0.059-0.296-0.122
		c-0.144-0.062-0.287-0.129-0.431-0.202c-0.144-0.072-0.28-0.144-0.404-0.215c-0.126-0.073-0.216-0.125-0.269-0.162H175.543z
		 M175.112,31.251c-0.054,0-0.1-0.044-0.134-0.135c-0.018-0.089,0.027-0.133,0.134-0.133c0.125,0,0.178,0.044,0.161,0.133
		C175.237,31.207,175.185,31.251,175.112,31.251z M180.239,17.969c0.261,0.081,0.526,0.185,0.795,0.31
		c0.268,0.126,0.502,0.255,0.7,0.391c0.195,0.133,0.296,0.254,0.296,0.362c0,0.197-0.09,0.391-0.27,0.579
		c-0.18,0.188-0.386,0.282-0.618,0.282c-0.019,0-0.063-0.044-0.135-0.134c-0.072-0.088-0.116-0.143-0.134-0.161
		c-0.197-0.125-0.367-0.236-0.511-0.336c-0.144-0.098-0.266-0.211-0.363-0.338c-0.098-0.125-0.175-0.273-0.229-0.442
		c-0.053-0.17-0.081-0.381-0.081-0.633C179.795,17.848,179.98,17.888,180.239,17.969z"/>
	<path d="M189.739,30.552c-0.027-0.144-0.04-0.242-0.04-0.297c0-0.321,0.094-0.525,0.282-0.605c0.188-0.081,0.396-0.143,0.619-0.189
		c0.225-0.044,0.431-0.116,0.619-0.216c0.188-0.097,0.282-0.319,0.282-0.66c0-0.25-0.054-0.425-0.161-0.525
		c-0.107-0.098-0.161-0.299-0.161-0.606c0-0.178,0.018-0.321,0.054-0.43c0.036-0.109,0.071-0.212,0.107-0.309
		c0.036-0.099,0.073-0.207,0.107-0.323c0.037-0.116,0.055-0.272,0.055-0.47c0-0.197-0.018-0.354-0.055-0.471
		c-0.034-0.116-0.071-0.218-0.107-0.31c-0.037-0.089-0.071-0.188-0.107-0.295c-0.037-0.107-0.054-0.26-0.054-0.458
		c0-0.305,0.054-0.507,0.161-0.606c0.107-0.098,0.161-0.272,0.161-0.524c0-0.162-0.054-0.356-0.161-0.58
		c-0.107-0.225-0.246-0.443-0.417-0.659c-0.17-0.217-0.359-0.395-0.566-0.539c-0.206-0.144-0.398-0.216-0.579-0.216
		c-0.034,0-0.115,0.009-0.241,0.028c-0.035,0.018-0.086,0.113-0.149,0.282c-0.063,0.171-0.111,0.266-0.146,0.283
		c-0.02,0.018-0.068,0.04-0.148,0.066c-0.081,0.027-0.167,0.053-0.256,0.081c-0.091,0.026-0.18,0.05-0.27,0.066
		c-0.09,0.019-0.144,0.037-0.16,0.054c-0.037,0.037-0.088,0.13-0.149,0.281c-0.063,0.153-0.104,0.247-0.12,0.283
		c-0.019,0.018-0.072,0.063-0.161,0.134c-0.092,0.072-0.134,0.126-0.134,0.161c-0.019,0.073-0.045,0.198-0.08,0.378
		c-0.036,0.179-0.067,0.373-0.094,0.579c-0.028,0.207-0.05,0.408-0.068,0.605c-0.018,0.198-0.026,0.332-0.026,0.403
		c-0.054-0.018-0.152,0.013-0.296,0.094c-0.145,0.08-0.234,0.139-0.27,0.175c-0.019,0.126-0.028,0.208-0.028,0.244
		c0,0.34,0.059,0.659,0.176,0.955c0.115,0.296,0.174,0.624,0.174,0.982c-0.304,0-0.529-0.099-0.671-0.297
		c-0.144-0.196-0.217-0.448-0.217-0.753v-4.224c0-0.036-0.009-0.099-0.027-0.189c-0.018-0.091-0.04-0.179-0.067-0.269
		c-0.026-0.091-0.058-0.171-0.095-0.242c-0.036-0.073-0.063-0.117-0.08-0.133c-0.036-0.019-0.107-0.05-0.216-0.094
		c-0.107-0.044-0.221-0.081-0.338-0.109c-0.115-0.026-0.229-0.049-0.336-0.066c-0.108-0.018-0.189-0.018-0.242,0v-0.296
		c0-0.019,0.053-0.044,0.16-0.081c0.108-0.035,0.233-0.067,0.378-0.095c0.144-0.028,0.297-0.049,0.458-0.067
		c0.16-0.017,0.296-0.026,0.402-0.026c0.019,0,0.085,0.012,0.202,0.04c0.116,0.025,0.236,0.057,0.363,0.093
		c0.125,0.036,0.241,0.068,0.351,0.095c0.107,0.027,0.177,0.04,0.216,0.04c0.25,0.018,0.411,0.027,0.483,0.027
		s0.185-0.005,0.337-0.014c0.151-0.008,0.246-0.012,0.283-0.012c0.195,0,0.55-0.014,1.061-0.04c0.512-0.027,1.049-0.054,1.615-0.081
		c0.566-0.028,1.099-0.054,1.602-0.082c0.503-0.025,0.852-0.049,1.049-0.066c0.018-0.036,0.063-0.085,0.134-0.149
		c0.072-0.063,0.126-0.103,0.162-0.121c0-0.018,0.044-0.028,0.134-0.028c0.161,0,0.27,0.054,0.321,0.162
		c0.055,0.107,0.181,0.161,0.378,0.161c0.179,0,0.3-0.053,0.363-0.161c0.063-0.108,0.174-0.162,0.337-0.162c0.018,0,0.044,0,0.081,0
		c0.035,0,0.053,0.011,0.053,0.028c0.396,0.197,0.704,0.39,0.929,0.579c0.225,0.189,0.39,0.395,0.498,0.619
		c0.107,0.225,0.174,0.489,0.201,0.793c0.027,0.304,0.049,0.664,0.067,1.078c0,0.178,0.014,0.498,0.04,0.955
		c0.027,0.458,0.054,0.938,0.081,1.439c0.027,0.503,0.053,0.979,0.081,1.426c0.026,0.449,0.05,0.764,0.067,0.942
		c0.125,0.091,0.257,0.22,0.39,0.391c0.134,0.17,0.259,0.358,0.377,0.565c0.116,0.206,0.212,0.407,0.283,0.606
		c0.071,0.197,0.107,0.366,0.107,0.51c0,0.037,0.005,0.105,0.014,0.202c0.009,0.099,0.004,0.208-0.014,0.323
		c-0.018,0.115-0.05,0.225-0.094,0.321c-0.045,0.099-0.121,0.158-0.229,0.176c-0.053,0-0.152,0-0.296,0s-0.297,0.004-0.457,0.013
		c-0.162,0.01-0.323,0.013-0.485,0.013c-0.143,0-0.241,0-0.295,0c-0.323,0-0.728,0-1.212,0c-0.467,0-0.861-0.108-1.185-0.322v-0.108
		c0-0.465,0.148-0.874,0.443-1.224c0.298-0.349,0.614-0.65,0.956-0.901v-6.453c0-0.089-0.045-0.171-0.134-0.243
		c-0.09-0.071-0.197-0.129-0.323-0.174c-0.126-0.045-0.251-0.081-0.377-0.108c-0.125-0.028-0.225-0.041-0.296-0.041
		c-0.161,0-0.363,0.081-0.606,0.243c-0.24,0.162-0.479,0.355-0.711,0.579c-0.235,0.225-0.436,0.444-0.606,0.66
		c-0.171,0.217-0.266,0.378-0.283,0.485c0,0.035,0,0.126,0,0.269c0,0.144,0,0.296,0,0.457c0,0.144,0,0.288,0,0.431
		c0,0.144,0,0.234,0,0.269c-0.018,0.019-0.072,0.063-0.16,0.134c-0.09,0.072-0.135,0.116-0.135,0.134
		c0,0.018-0.004,0.116-0.012,0.294c-0.01,0.18-0.014,0.316-0.014,0.404c0,0.233,0.017,0.399,0.054,0.498
		c0.034,0.098,0.071,0.176,0.107,0.228c0.036,0.054,0.071,0.104,0.108,0.149c0.035,0.045,0.053,0.131,0.053,0.256
		c0,0.144-0.053,0.247-0.161,0.31c-0.107,0.063-0.161,0.192-0.161,0.39c0,0.216,0.063,0.427,0.188,0.633
		c0.125,0.206,0.265,0.417,0.417,0.632c0.152,0.215,0.291,0.43,0.417,0.646c0.126,0.215,0.188,0.43,0.188,0.646
		c0,0.414-0.131,0.651-0.391,0.714c-0.261,0.062-0.561,0.093-0.901,0.093h-0.458c-0.09-0.018-0.236-0.04-0.442-0.067
		c-0.207-0.027-0.431-0.053-0.673-0.081c-0.242-0.027-0.471-0.053-0.687-0.081c-0.216-0.028-0.359-0.049-0.431-0.067
		C189.787,30.784,189.767,30.696,189.739,30.552z M185.312,29.152c0.018-0.017,0.068-0.04,0.149-0.067
		c0.079-0.028,0.169-0.054,0.269-0.081c0.098-0.027,0.192-0.054,0.281-0.081c0.092-0.028,0.144-0.05,0.163-0.068
		c0.018-0.016,0.057-0.111,0.12-0.282s0.113-0.265,0.147-0.282c0.018,0,0.094-0.005,0.229-0.014
		c0.134-0.009,0.245-0.013,0.337-0.013c0.072,0,0.178,0.005,0.321,0.013c0.144,0.01,0.224,0.014,0.243,0.014
		c0.018,0.018,0.09,0.114,0.216,0.282c0.126,0.171,0.256,0.369,0.391,0.591c0.134,0.225,0.255,0.443,0.361,0.661
		c0.107,0.216,0.161,0.359,0.161,0.43c0,0.216-0.049,0.427-0.147,0.633c-0.099,0.207-0.239,0.372-0.417,0.497
		c-0.037-0.196-0.207-0.296-0.512-0.296c-0.306,0-0.633-0.013-0.982-0.04c-0.35-0.026-0.669-0.125-0.955-0.295
		c-0.288-0.171-0.431-0.535-0.431-1.09C185.259,29.591,185.276,29.421,185.312,29.152z"/>
	<path d="M203.505,22.625c0.195-0.762,0.34-1.484,0.431-2.167v1.965c0.053,0.018,0.17,0.058,0.349,0.121
		c0.18,0.062,0.298,0.113,0.35,0.148c0.019,0.018,0.063,0.068,0.135,0.148c0.072,0.08,0.126,0.121,0.161,0.121
		c0.035,0.018,0.14,0.01,0.31-0.028c0.172-0.036,0.272-0.054,0.31-0.054c0-0.395,0.044-0.686,0.134-0.875
		c0.09-0.188,0.206-0.341,0.35-0.457c0.143-0.117,0.314-0.23,0.511-0.337c0.197-0.108,0.403-0.269,0.619-0.484
		c0.018-0.036,0.063-0.13,0.135-0.283c0.071-0.152,0.114-0.246,0.134-0.283c0.072-0.017,0.116-0.026,0.133-0.026
		c0.163,0,0.274,0.054,0.338,0.162c0.063,0.107,0.192,0.162,0.391,0.162c0.106,0,0.216-0.01,0.322-0.027
		c0.108-0.018,0.178-0.109,0.216-0.27h3.929c0.018,0.054,0.063,0.154,0.133,0.297c0.073,0.144,0.127,0.233,0.162,0.269
		c0.018,0.037,0.108,0.085,0.269,0.148c0.162,0.062,0.253,0.113,0.27,0.148c0.197,0.198,0.382,0.435,0.551,0.712
		c0.171,0.279,0.322,0.571,0.458,0.875c0.134,0.305,0.242,0.615,0.322,0.928c0.08,0.315,0.12,0.606,0.12,0.875
		c0,0.073-0.009,0.243-0.026,0.512c-0.036,0.072-0.094,0.166-0.174,0.282c-0.082,0.117-0.167,0.23-0.256,0.338
		c-0.092,0.107-0.176,0.196-0.257,0.269c-0.081,0.072-0.139,0.107-0.175,0.107h-6.163c-0.054,0.162-0.127,0.273-0.217,0.336
		c-0.089,0.064-0.184,0.121-0.281,0.176c-0.099,0.054-0.184,0.117-0.256,0.189c-0.072,0.072-0.107,0.197-0.107,0.376
		c0,0.198,0.012,0.377,0.039,0.54c0.028,0.16,0.112,0.321,0.256,0.483c0.055,0,0.171,0.005,0.35,0.014
		c0.18,0.009,0.297,0.013,0.351,0.013c0.216,0,0.385-0.018,0.511-0.053c0.125-0.036,0.237-0.073,0.337-0.108
		c0.098-0.036,0.21-0.072,0.337-0.108c0.125-0.035,0.296-0.052,0.511-0.052c0.054,0,0.171,0,0.35,0c0.18,0,0.297,0.009,0.349,0.026
		c-0.25,0.251-0.546,0.489-0.888,0.713c-0.341,0.224-0.699,0.355-1.076,0.389c0.304,0.055,0.632,0.167,0.982,0.337
		c0.349,0.171,0.676,0.256,0.98,0.256c0.035,0,0.127-0.009,0.271-0.026c0.034,0,0.084-0.045,0.147-0.134
		c0.063-0.089,0.111-0.134,0.148-0.134c0.035-0.017,0.121-0.04,0.255-0.066c0.136-0.028,0.283-0.054,0.445-0.082
		c0.16-0.028,0.31-0.054,0.443-0.081c0.133-0.026,0.218-0.049,0.256-0.066c0.144-0.073,0.237-0.171,0.282-0.297
		s0.097-0.251,0.161-0.376c0.063-0.126,0.156-0.238,0.281-0.336c0.126-0.099,0.352-0.149,0.674-0.149
		c0.232,0,0.431,0.018,0.591,0.054c0.162,0.036,0.243,0.215,0.243,0.539c0,0.466-0.131,0.892-0.39,1.278
		c-0.26,0.386-0.584,0.713-0.97,0.982c-0.386,0.268-0.812,0.476-1.277,0.62c-0.468,0.143-0.896,0.215-1.291,0.215
		c-0.846,0-1.629-0.057-2.356-0.174c-0.726-0.116-1.431-0.436-2.112-0.957c-0.09-0.071-0.193-0.196-0.31-0.377
		c-0.116-0.178-0.229-0.376-0.337-0.591c-0.106-0.215-0.206-0.417-0.296-0.605c-0.092-0.188-0.152-0.319-0.188-0.39
		c-0.019-0.019-0.06-0.063-0.122-0.134c-0.063-0.073-0.112-0.117-0.147-0.135c-0.539-0.358-0.96-0.807-1.266-1.345
		s-0.458-1.148-0.458-1.83C203.208,24.129,203.307,23.388,203.505,22.625z M204.042,25.626c0,0.197,0.027,0.385,0.081,0.565
		c0.053,0.18,0.137,0.332,0.255,0.457c0.116,0.127,0.301,0.208,0.553,0.244v-0.269c0-0.198-0.051-0.364-0.148-0.499
		c-0.1-0.134-0.149-0.3-0.149-0.498v-0.134c0.036-0.018,0.135-0.059,0.298-0.122c0.161-0.062,0.251-0.111,0.269-0.147
		c0.144-0.197,0.236-0.489,0.281-0.875c0.046-0.385,0.068-0.688,0.068-0.9c-0.198,0-0.35,0.022-0.458,0.066
		c-0.108,0.046-0.211,0.1-0.309,0.163c-0.1,0.062-0.201,0.134-0.31,0.215c-0.108,0.082-0.243,0.149-0.404,0.203
		c0,0.09-0.004,0.256-0.014,0.497c-0.009,0.242-0.013,0.408-0.013,0.499C204.042,25.249,204.042,25.428,204.042,25.626z
		 M209.304,21.374c-0.35,0.073-0.695,0.18-1.036,0.322c-0.341,0.144-0.638,0.323-0.888,0.539c-0.252,0.216-0.377,0.458-0.377,0.727
		h2.69c-0.019-0.179,0.026-0.322,0.134-0.432c0.107-0.106,0.243-0.193,0.403-0.255c0.162-0.063,0.322-0.103,0.484-0.121
		c0.161-0.018,0.286-0.027,0.378-0.027c0-0.019,0.004-0.063,0.013-0.135s0.012-0.115,0.012-0.133c0-0.269-0.111-0.435-0.336-0.497
		c-0.225-0.063-0.444-0.095-0.66-0.095C209.927,21.266,209.655,21.302,209.304,21.374z M207.111,23.757
		c0.071,0.08,0.161,0.148,0.27,0.201c0.107,0.054,0.219,0.113,0.337,0.175c0.116,0.063,0.211,0.148,0.283,0.257h3.659
		c-0.018-0.179,0.027-0.328,0.133-0.445c0.108-0.116,0.242-0.207,0.403-0.269c0.161-0.063,0.322-0.103,0.484-0.121
		c0.161-0.019,0.286-0.028,0.376-0.028V23.26c0-0.108-0.034-0.229-0.107-0.364c-0.072-0.133-0.157-0.266-0.256-0.39
		c-0.1-0.125-0.193-0.247-0.283-0.362c-0.09-0.116-0.161-0.211-0.216-0.282c-0.018,0.036-0.058,0.129-0.121,0.282
		c-0.063,0.153-0.113,0.247-0.147,0.282c-0.054,0.073-0.127,0.161-0.216,0.269c-0.091,0.109-0.18,0.217-0.269,0.322
		c-0.091,0.107-0.208,0.234-0.35,0.377h-4.09C207.003,23.554,207.039,23.675,207.111,23.757z M209.263,18.899
		c-0.215,0-0.358-0.045-0.431-0.134c-0.035-0.036-0.004-0.063,0.095-0.08c0.099-0.019,0.21-0.028,0.336-0.028
		c0.127,0,0.233,0.01,0.324,0.028c0.089,0.018,0.125,0.044,0.107,0.08C209.622,18.853,209.479,18.899,209.263,18.899z
		 M211.404,26.474c0.008,0.063,0.014,0.113,0.014,0.148c0,0.161-0.04,0.3-0.121,0.417c-0.08,0.117-0.247,0.166-0.497,0.147v-0.134
		v-0.161c0.034-0.036,0.125-0.131,0.269-0.283c0.145-0.152,0.242-0.246,0.296-0.282C211.38,26.362,211.395,26.411,211.404,26.474z
		 M211.445,21.59c0,0.178,0.071,0.269,0.216,0.269c0.142,0,0.216-0.09,0.216-0.269c0-0.198-0.073-0.298-0.216-0.298
		C211.515,21.294,211.445,21.391,211.445,21.59z"/>
	<path d="M230.052,31.183c-0.063-0.098-0.139-0.201-0.228-0.309c-0.09-0.108-0.185-0.202-0.282-0.282
		c-0.099-0.081-0.176-0.121-0.229-0.121c-0.161,0-0.3,0.04-0.416,0.121c-0.116,0.081-0.167,0.247-0.148,0.497l-3.93,0.27
		c-0.052,0.018-0.188-0.014-0.403-0.095c-0.215-0.079-0.359-0.138-0.43-0.175c-0.036-0.036-0.085-0.129-0.147-0.282
		c-0.063-0.152-0.104-0.247-0.121-0.282c-0.036-0.036-0.135-0.081-0.298-0.134c-0.159-0.053-0.251-0.099-0.269-0.135
		c-0.019-0.017-0.031-0.08-0.04-0.188c-0.009-0.107-0.012-0.189-0.012-0.241c0-0.037,0.004-0.109,0.012-0.217
		c0.01-0.107,0.022-0.178,0.04-0.215c0.322-0.019,0.65-0.059,0.982-0.122c0.331-0.062,0.634-0.162,0.902-0.296
		c0.269-0.135,0.487-0.322,0.659-0.565c0.171-0.243,0.256-0.569,0.256-0.982v-6.001h-3.095c-0.091,0-0.153-0.04-0.188-0.121
		c-0.037-0.081-0.063-0.171-0.08-0.269c-0.018-0.099-0.028-0.193-0.028-0.283c0-0.108,0-0.178,0-0.215
		c0-0.197,0.055-0.409,0.162-0.633c0.108-0.225,0.297-0.336,0.566-0.336c0.177,0,0.33,0.045,0.457,0.134
		c0.125,0.09,0.242,0.193,0.35,0.309c0.107,0.117,0.216,0.22,0.321,0.309c0.108,0.091,0.243,0.135,0.403,0.135
		c0.162,0,0.287-0.032,0.378-0.095c0.089-0.062,0.176-0.13,0.256-0.203c0.081-0.072,0.179-0.137,0.296-0.2
		c0.117-0.063,0.275-0.095,0.473-0.095c0.233,0,0.479,0.067,0.738,0.202c0.26,0.134,0.391,0.356,0.391,0.66
		c-0.036,1.113-0.036,2.23,0,3.351c0.035,1.122,0.125,2.237,0.269,3.351c0.107,0.053,0.202,0.148,0.283,0.282
		c0.079,0.134,0.138,0.279,0.175,0.432c0.035,0.153,0.063,0.295,0.079,0.431c0.02,0.133,0.028,0.229,0.028,0.281h0.996
		c0.233,0,0.492,0,0.781,0c0.304,0,0.555-0.097,0.753-0.295c-0.02,0.054-0.014,0.152,0.013,0.295
		c0.027,0.144,0.063,0.306,0.108,0.485s0.084,0.355,0.121,0.525c0.035,0.171,0.053,0.3,0.053,0.39c0,0.037,0.004,0.109,0.014,0.217
		c0.009,0.107,0.009,0.225,0,0.349c-0.011,0.127-0.036,0.243-0.081,0.351c-0.045,0.106-0.12,0.17-0.229,0.187
		c0.035,0.019,0.09,0.063,0.161,0.134c0.073,0.073,0.107,0.126,0.107,0.161c0.017,0.055,0.045,0.139,0.081,0.257
		c0.035,0.116,0.068,0.242,0.094,0.376c0.027,0.135,0.055,0.261,0.081,0.377s0.04,0.202,0.04,0.256h2.529l-1.696,0.402l-0.27,0.566
		h-3.875c0-0.268,0.111-0.462,0.337-0.578c0.225-0.117,0.475-0.238,0.754-0.364c0.277-0.125,0.529-0.3,0.753-0.524
		c0.224-0.225,0.338-0.58,0.338-1.063C230.148,31.341,230.115,31.282,230.052,31.183z M224.966,15.587
		c0.279-0.144,0.606-0.215,0.982-0.215c0.557,0,0.933,0.13,1.131,0.391c0.197,0.261,0.295,0.649,0.295,1.171
		c0,0.395-0.08,0.704-0.241,0.929s-0.466,0.336-0.915,0.336c-0.197,0-0.396-0.049-0.593-0.148c-0.196-0.098-0.378-0.229-0.538-0.391
		c-0.161-0.161-0.292-0.341-0.39-0.538c-0.098-0.199-0.147-0.404-0.147-0.62C224.551,16.036,224.689,15.731,224.966,15.587z
		 M229.099,19.45c0.072-0.098,0.232-0.148,0.483-0.148c0.252,0,0.459,0.112,0.621,0.336c0.159,0.225,0.24,0.444,0.24,0.66
		c0,0.179-0.063,0.296-0.188,0.35c-0.127,0.054-0.259,0.081-0.403,0.081c-0.233,0-0.437-0.081-0.606-0.242
		c-0.172-0.162-0.256-0.368-0.256-0.62C228.99,19.687,229.025,19.549,229.099,19.45z M229.731,24.051
		c0.063-0.009,0.113-0.013,0.148-0.013c0.18,0,0.31,0.054,0.39,0.162c0.081,0.108,0.133,0.242,0.162,0.403
		c0.027,0.161,0.035,0.323,0.027,0.485c-0.009,0.161-0.015,0.296-0.015,0.403v0.834c-0.018-0.162-0.04-0.345-0.066-0.551
		c-0.027-0.206-0.072-0.417-0.134-0.633c-0.064-0.215-0.149-0.421-0.257-0.619c-0.107-0.196-0.242-0.35-0.402-0.457
		C229.618,24.065,229.668,24.061,229.731,24.051z"/>
	<path d="M239.89,23.5c0.035-0.018,0.13-0.064,0.282-0.134c0.151-0.073,0.247-0.117,0.282-0.135
		c0.018-0.035,0.063-0.129,0.134-0.281c0.072-0.153,0.116-0.247,0.135-0.283c0.072-0.018,0.116-0.027,0.133-0.027
		c0.019,0,0.167,0.138,0.444,0.417c0.278,0.279,0.578,0.588,0.901,0.929c0.321,0.341,0.622,0.66,0.901,0.955
		c0.277,0.297,0.427,0.472,0.443,0.526c0.035,0,0.149,0.004,0.338,0.013s0.309,0.012,0.362,0.012c0.735,0,1.435-0.197,2.099-0.592
		c-0.018,0.053-0.018,0.135,0,0.242s0.04,0.225,0.068,0.35c0.027,0.126,0.058,0.238,0.093,0.337
		c0.037,0.098,0.072,0.166,0.107,0.201c0.198,0.018,0.315,0.028,0.351,0.028c0.196,0,0.381-0.014,0.55-0.04
		c0.172-0.028,0.339-0.113,0.498-0.257c-0.071,0.109-0.059,0.216,0.04,0.322c0.099,0.107,0.217,0.228,0.351,0.363
		c0.134,0.133,0.26,0.281,0.378,0.443c0.116,0.161,0.148,0.341,0.094,0.538c-0.018,0.036-0.112,0.085-0.282,0.148
		c-0.172,0.063-0.264,0.113-0.281,0.149c-0.126,0.125-0.198,0.225-0.217,0.295c-0.019,0.073-0.03,0.131-0.041,0.176
		c-0.009,0.044-0.026,0.075-0.053,0.094c-0.027,0.018-0.113,0.026-0.257,0.026c-0.145,0-0.269-0.061-0.377-0.188
		c-0.107-0.125-0.211-0.273-0.309-0.443c-0.1-0.171-0.207-0.337-0.323-0.498c-0.115-0.161-0.248-0.27-0.391-0.322
		c-0.034,0-0.133-0.013-0.297-0.04c-0.16-0.028-0.345-0.055-0.55-0.081c-0.208-0.026-0.414-0.054-0.619-0.08
		c-0.208-0.027-0.373-0.049-0.499-0.067c-0.034,0-0.106,0-0.216,0c-0.107,0-0.224,0-0.349,0c-0.127,0-0.252,0-0.377,0
		c-0.108,0-0.172,0-0.188,0c-0.037,0-0.132-0.044-0.284-0.135c-0.151-0.089-0.246-0.133-0.281-0.133
		c-0.127-0.054-0.282-0.113-0.471-0.176s-0.378-0.125-0.566-0.188c-0.189-0.063-0.367-0.133-0.538-0.216
		c-0.17-0.081-0.299-0.175-0.39-0.282c-0.02-0.019-0.063-0.099-0.134-0.243c-0.073-0.144-0.154-0.299-0.242-0.471
		c-0.091-0.17-0.175-0.345-0.256-0.525c-0.081-0.178-0.148-0.322-0.202-0.43c0-0.019-0.005-0.044-0.014-0.081
		c-0.01-0.036-0.014-0.063-0.014-0.081C239.863,23.616,239.871,23.571,239.89,23.5z M243.536,31.373
		c-0.261,0.009-0.543,0.012-0.848,0.012c-0.287,0-0.566-0.004-0.834-0.012c-0.27-0.01-0.457-0.013-0.565-0.013
		c-0.073,0-0.176-0.036-0.31-0.107c-0.136-0.073-0.22-0.126-0.257-0.163c0-0.018,0-0.062,0-0.134c0-0.088,0-0.178,0-0.269
		c0-0.108,0-0.196,0-0.269c0-0.09,0-0.152,0-0.188c-0.036-0.287-0.091-0.52-0.161-0.7c-0.072-0.179-0.144-0.35-0.216-0.512
		c-0.071-0.162-0.136-0.328-0.188-0.498c-0.055-0.17-0.08-0.407-0.08-0.713c0.054,0,0.152,0.009,0.296,0.027
		c0.144,0.019,0.296,0.036,0.458,0.054c0.16,0.018,0.313,0.035,0.458,0.053c0.144,0.019,0.241,0.036,0.296,0.054
		c0.035,0.019,0.125,0.108,0.27,0.269c0.143,0.162,0.233,0.259,0.268,0.296c0.145,0.108,0.333,0.242,0.566,0.403
		c0.233,0.163,0.471,0.32,0.711,0.473c0.244,0.152,0.477,0.281,0.702,0.39c0.224,0.107,0.407,0.16,0.55,0.16
		c0.198,0,0.328-0.052,0.391-0.16c0.063-0.109,0.166-0.162,0.311-0.162c0.088,0,0.133,0.01,0.133,0.027
		c0.035,0.019,0.091,0.058,0.16,0.121c0.073,0.063,0.117,0.112,0.136,0.148h2.394v-1.4h0.729c0,0.52-0.036,0.959-0.109,1.317
		c-0.072,0.36-0.202,0.661-0.39,0.902c-0.188,0.243-0.448,0.436-0.78,0.579c-0.333,0.143-0.758,0.242-1.279,0.295
		c-0.035,0-0.108,0-0.216,0c-0.106,0-0.224,0-0.349,0c-0.126,0-0.252,0-0.379,0c-0.107,0-0.17,0-0.188,0
		c-0.017,0-0.063,0.04-0.134,0.122c-0.071,0.081-0.117,0.131-0.135,0.147c-0.017,0-0.04,0.006-0.067,0.014
		c-0.026,0.01-0.059,0.014-0.093,0.014c-0.018,0-0.064-0.011-0.135-0.029c-0.054-0.035-0.152-0.126-0.295-0.269
		c-0.144-0.143-0.234-0.24-0.27-0.295C243.979,31.359,243.797,31.363,243.536,31.373z M241.235,21.696
		c0-0.233,0.036-0.474,0.108-0.727c0.073-0.251,0.176-0.483,0.309-0.699c0.136-0.216,0.302-0.39,0.5-0.526
		c0.195-0.134,0.421-0.202,0.672-0.202c0.178,0,0.304,0.036,0.377,0.107c0.072,0.073,0.126,0.148,0.16,0.229
		c0.036,0.082,0.081,0.153,0.136,0.216c0.051,0.064,0.16,0.095,0.322,0.095c0.159,0,0.299-0.04,0.417-0.122
		c0.115-0.08,0.166-0.246,0.147-0.497c0.286,0.377,0.624,0.664,1.01,0.861c0.386,0.196,0.794,0.296,1.225,0.296
		c0.108,0,0.269-0.004,0.483-0.013c0.216-0.009,0.333-0.014,0.352-0.014c0.036,0,0.089-0.045,0.161-0.133
		c0.072-0.091,0.115-0.134,0.133-0.134c0-0.018,0.019-0.028,0.056-0.028c0.035,0,0.062,0,0.08,0c0.018,0,0.045,0,0.08,0
		s0.053,0.011,0.053,0.028c0,0.072,0.014,0.201,0.041,0.39c0.028,0.189,0.055,0.386,0.08,0.591c0.028,0.207,0.059,0.404,0.095,0.592
		c0.035,0.188,0.063,0.319,0.081,0.39c0,0.018,0.039,0.064,0.12,0.134c0.082,0.072,0.132,0.117,0.148,0.134
		c0.019,0.072,0.027,0.116,0.027,0.134c0,0.234-0.08,0.458-0.242,0.672c-0.161,0.217-0.367,0.323-0.62,0.323
		c-0.161,0-0.309-0.013-0.442-0.04c-0.134-0.027-0.265-0.114-0.391-0.256c-0.036-0.017-0.091-0.108-0.161-0.269
		c-0.071-0.16-0.116-0.259-0.134-0.297c-0.107-0.144-0.247-0.255-0.417-0.336c-0.171-0.08-0.341-0.152-0.512-0.215
		c-0.171-0.063-0.326-0.144-0.471-0.243c-0.144-0.097-0.233-0.246-0.269-0.443L241.235,21.696L241.235,21.696z"/>
	<path d="M260.814,30.887c-0.116,0.08-0.166,0.247-0.149,0.498c-0.321-0.484-0.519-1.026-0.59-1.628
		c-0.073-0.601-0.064-1.179,0.025-1.736c-0.179-0.053-0.31-0.13-0.39-0.229c-0.081-0.098-0.133-0.215-0.16-0.35
		c-0.028-0.134-0.041-0.265-0.041-0.391c0-0.144,0-0.279,0-0.404c0-0.286,0.032-0.55,0.094-0.793c0.063-0.242,0.134-0.474,0.216-0.7
		c0.082-0.225,0.152-0.467,0.217-0.726c0.063-0.26,0.093-0.562,0.093-0.902c0-0.091-0.004-0.279-0.012-0.565
		c-0.01-0.288-0.015-0.476-0.015-0.566c-0.036-0.018-0.131-0.059-0.281-0.121c-0.152-0.063-0.248-0.112-0.282-0.148
		c-0.198-0.125-0.423-0.207-0.673-0.244c-0.252-0.035-0.497-0.076-0.74-0.121c-0.242-0.044-0.443-0.121-0.605-0.229
		c-0.163-0.107-0.243-0.286-0.243-0.538c0-0.197,0.077-0.363,0.229-0.498c0.152-0.134,0.337-0.247,0.552-0.337
		c0.215-0.089,0.435-0.178,0.659-0.269c0.225-0.089,0.407-0.188,0.551-0.295c0-0.09,0.013-0.242,0.04-0.458
		c0.028-0.217,0.054-0.44,0.081-0.673c0.026-0.233,0.054-0.453,0.08-0.659c0.027-0.207,0.05-0.355,0.068-0.444
		c0.053-0.216,0.143-0.385,0.269-0.511c0.126-0.125,0.273-0.219,0.443-0.283c0.172-0.063,0.355-0.104,0.553-0.121
		c0.196-0.018,0.385-0.028,0.566-0.028v3.446c0,0.144,0.093,0.228,0.281,0.256c0.188,0.028,0.327,0.039,0.418,0.039h0.297
		c0.018-0.017,0.062-0.067,0.134-0.148c0.072-0.08,0.116-0.13,0.134-0.148c0.036,0,0.172-0.003,0.403-0.013
		c0.233-0.01,0.403-0.013,0.511-0.013c0.108,0,0.26,0.005,0.458,0.013c0.196,0.011,0.304,0.013,0.322,0.013
		c0.017,0,0.063,0.037,0.133,0.107c0.072,0.073,0.153,0.154,0.242,0.242c0.09,0.09,0.18,0.184,0.27,0.283
		c0.089,0.099,0.152,0.174,0.188,0.229c0.018,0.072,0.027,0.117,0.027,0.133c0,0.054-0.063,0.132-0.188,0.23
		s-0.275,0.202-0.444,0.31c-0.171,0.107-0.333,0.201-0.483,0.281c-0.153,0.081-0.257,0.132-0.31,0.148
		c-0.073,0.018-0.166,0.045-0.283,0.081c-0.117,0.037-0.233,0.068-0.351,0.095c-0.117,0.025-0.225,0.053-0.322,0.081
		c-0.098,0.026-0.155,0.04-0.175,0.04c-0.036,0-0.107-0.014-0.217-0.04c-0.107-0.027-0.223-0.059-0.349-0.095
		c-0.126-0.035-0.241-0.072-0.349-0.107c-0.109-0.037-0.181-0.054-0.217-0.054c-0.037,0-0.113,0.01-0.229,0.028
		c-0.117,0.018-0.193,0.026-0.229,0.026c0,0.091-0.014,0.171-0.04,0.244c-0.027,0.072-0.045,0.144-0.054,0.215
		c-0.01,0.072,0.005,0.139,0.04,0.202c0.036,0.062,0.116,0.113,0.242,0.148v5.033c0,0.161,0.049,0.314,0.147,0.458
		c0.099,0.144,0.217,0.278,0.351,0.402c0.135,0.127,0.26,0.256,0.377,0.391c0.115,0.134,0.201,0.282,0.257,0.443h1.668
		c0.018-0.054,0.063-0.153,0.134-0.295c0.073-0.144,0.126-0.234,0.162-0.271c0.017-0.035,0.108-0.084,0.269-0.146
		c0.162-0.063,0.252-0.113,0.27-0.148c0.053-0.072,0.098-0.22,0.134-0.444c0.036-0.224,0.09-0.447,0.161-0.672
		c0.072-0.225,0.156-0.426,0.256-0.606c0.099-0.179,0.246-0.269,0.443-0.269c0.126,0,0.219,0.077,0.283,0.229
		c0.062,0.153,0.108,0.327,0.133,0.526c0.025,0.199,0.036,0.39,0.027,0.578c-0.009,0.189-0.012,0.321-0.012,0.392
		c0,0.25-0.006,0.538-0.015,0.86c-0.009,0.323-0.103,0.602-0.282,0.834c-0.019,0.019-0.108,0.059-0.27,0.121
		c-0.16,0.063-0.259,0.114-0.296,0.148c-0.018,0.037-0.059,0.132-0.121,0.283c-0.063,0.154-0.111,0.246-0.148,0.282
		c-0.161,0.163-0.341,0.322-0.538,0.484c-0.197,0.161-0.403,0.314-0.619,0.458c-0.216,0.143-0.443,0.259-0.688,0.35
		c-0.24,0.09-0.48,0.134-0.713,0.134c-0.251,0-0.431-0.076-0.539-0.228c-0.107-0.153-0.192-0.323-0.255-0.512
		c-0.063-0.188-0.131-0.359-0.202-0.511c-0.071-0.153-0.196-0.229-0.377-0.229C261.07,30.766,260.929,30.806,260.814,30.887z
		 M260.101,19.302h0.565v-0.538h-0.565V19.302z M260.962,29.985h0.538v-0.564h-0.538V29.985z"/>
	<path d="M273.556,22.625c0.198-0.762,0.341-1.484,0.432-2.167v1.965c0.055,0.018,0.171,0.058,0.35,0.121
		c0.18,0.062,0.296,0.113,0.35,0.148c0.019,0.018,0.063,0.068,0.135,0.148c0.071,0.08,0.125,0.121,0.16,0.121
		c0.036,0.018,0.139,0.01,0.31-0.028c0.171-0.036,0.274-0.054,0.309-0.054c0-0.395,0.045-0.686,0.134-0.875
		c0.089-0.188,0.206-0.341,0.351-0.457c0.144-0.117,0.313-0.23,0.512-0.337c0.196-0.108,0.402-0.269,0.619-0.484
		c0.018-0.036,0.063-0.13,0.134-0.283c0.072-0.152,0.116-0.246,0.134-0.283c0.072-0.017,0.115-0.026,0.135-0.026
		c0.161,0,0.273,0.054,0.337,0.162c0.063,0.107,0.192,0.162,0.39,0.162c0.108,0,0.216-0.01,0.322-0.027
		c0.107-0.018,0.18-0.109,0.217-0.27h3.929c0.018,0.054,0.062,0.154,0.134,0.297c0.072,0.144,0.126,0.233,0.162,0.269
		c0.018,0.037,0.107,0.085,0.27,0.148c0.161,0.062,0.25,0.113,0.269,0.148c0.195,0.198,0.381,0.435,0.551,0.712
		c0.171,0.279,0.322,0.571,0.457,0.875c0.134,0.305,0.243,0.615,0.323,0.928c0.08,0.315,0.12,0.606,0.12,0.875
		c0,0.073-0.01,0.243-0.028,0.512c-0.036,0.072-0.093,0.166-0.174,0.282c-0.08,0.117-0.167,0.23-0.257,0.338
		c-0.09,0.107-0.175,0.196-0.256,0.269c-0.081,0.072-0.139,0.107-0.175,0.107h-6.163c-0.053,0.162-0.125,0.273-0.216,0.336
		c-0.091,0.064-0.185,0.121-0.282,0.176c-0.1,0.054-0.185,0.117-0.257,0.189c-0.072,0.072-0.109,0.197-0.109,0.376
		c0,0.198,0.015,0.377,0.041,0.54c0.028,0.16,0.113,0.321,0.257,0.483c0.052,0,0.169,0.005,0.35,0.014
		c0.179,0.009,0.297,0.013,0.351,0.013c0.215,0,0.385-0.018,0.511-0.053c0.126-0.036,0.237-0.073,0.337-0.108
		c0.099-0.036,0.211-0.072,0.337-0.108c0.125-0.035,0.296-0.052,0.511-0.052c0.054,0,0.171,0,0.352,0
		c0.177,0,0.294,0.009,0.35,0.026c-0.252,0.251-0.548,0.489-0.889,0.713s-0.7,0.355-1.076,0.389
		c0.304,0.055,0.632,0.167,0.981,0.337c0.351,0.171,0.678,0.256,0.983,0.256c0.035,0,0.125-0.009,0.269-0.026
		c0.036,0,0.085-0.045,0.148-0.134c0.063-0.089,0.112-0.134,0.148-0.134c0.036-0.017,0.12-0.04,0.256-0.066
		c0.135-0.028,0.282-0.054,0.443-0.082c0.161-0.028,0.31-0.054,0.444-0.081c0.133-0.026,0.219-0.049,0.256-0.066
		c0.143-0.073,0.236-0.171,0.282-0.297c0.044-0.126,0.099-0.251,0.161-0.376c0.064-0.126,0.157-0.238,0.283-0.336
		c0.125-0.099,0.35-0.149,0.673-0.149c0.232,0,0.431,0.018,0.592,0.054c0.162,0.036,0.242,0.215,0.242,0.539
		c0,0.466-0.132,0.892-0.391,1.278c-0.261,0.386-0.583,0.713-0.968,0.982c-0.387,0.268-0.813,0.476-1.278,0.62
		c-0.466,0.143-0.897,0.215-1.292,0.215c-0.844,0-1.628-0.057-2.355-0.174c-0.726-0.117-1.432-0.436-2.111-0.957
		c-0.09-0.071-0.193-0.196-0.311-0.377c-0.116-0.178-0.228-0.376-0.336-0.591s-0.207-0.417-0.298-0.605
		c-0.09-0.188-0.151-0.319-0.188-0.39c-0.018-0.019-0.058-0.063-0.12-0.134c-0.063-0.073-0.112-0.117-0.148-0.135
		c-0.538-0.358-0.96-0.807-1.265-1.345s-0.458-1.148-0.458-1.83C273.261,24.129,273.36,23.388,273.556,22.625z M274.094,25.626
		c0,0.197,0.027,0.385,0.081,0.565s0.139,0.332,0.257,0.457c0.116,0.127,0.299,0.208,0.551,0.244v-0.269
		c0-0.198-0.05-0.364-0.148-0.499c-0.099-0.134-0.147-0.3-0.147-0.498v-0.134c0.035-0.018,0.135-0.059,0.296-0.122
		c0.161-0.062,0.252-0.111,0.271-0.147c0.143-0.197,0.235-0.489,0.282-0.875c0.044-0.385,0.067-0.688,0.067-0.9
		c-0.197,0-0.349,0.022-0.458,0.066c-0.108,0.046-0.211,0.1-0.31,0.163c-0.099,0.062-0.2,0.134-0.309,0.215
		c-0.108,0.082-0.241,0.149-0.403,0.203c0,0.09-0.005,0.256-0.013,0.497c-0.009,0.242-0.013,0.408-0.013,0.499
		C274.094,25.249,274.094,25.428,274.094,25.626z M279.357,21.374c-0.351,0.073-0.695,0.18-1.037,0.322
		c-0.341,0.144-0.638,0.323-0.889,0.539c-0.252,0.216-0.377,0.458-0.377,0.727h2.691c-0.02-0.179,0.025-0.322,0.133-0.432
		c0.107-0.106,0.242-0.193,0.404-0.255c0.16-0.063,0.321-0.103,0.483-0.121s0.286-0.027,0.377-0.027
		c0-0.019,0.005-0.063,0.013-0.135c0.01-0.072,0.014-0.115,0.014-0.133c0-0.269-0.113-0.435-0.337-0.497
		c-0.224-0.063-0.442-0.095-0.659-0.095C279.98,21.266,279.706,21.302,279.357,21.374z M277.162,23.757
		c0.073,0.08,0.162,0.148,0.27,0.201c0.108,0.054,0.219,0.113,0.338,0.175c0.115,0.063,0.209,0.148,0.281,0.257h3.66
		c-0.019-0.179,0.027-0.328,0.135-0.445c0.107-0.116,0.241-0.207,0.402-0.269c0.161-0.063,0.322-0.103,0.485-0.121
		c0.16-0.019,0.285-0.028,0.377-0.028V23.26c0-0.108-0.036-0.229-0.107-0.364c-0.073-0.133-0.157-0.266-0.258-0.39
		c-0.099-0.125-0.192-0.247-0.281-0.362c-0.092-0.116-0.162-0.211-0.217-0.282c-0.02,0.036-0.059,0.129-0.12,0.282
		c-0.064,0.153-0.113,0.247-0.148,0.282c-0.055,0.073-0.126,0.161-0.215,0.269c-0.092,0.109-0.181,0.217-0.27,0.322
		c-0.091,0.107-0.207,0.234-0.351,0.377h-4.09C277.055,23.554,277.091,23.675,277.162,23.757z M279.316,18.899
		c-0.216,0-0.36-0.045-0.431-0.134c-0.037-0.036-0.004-0.063,0.094-0.08c0.098-0.019,0.211-0.028,0.338-0.028
		c0.126,0,0.233,0.01,0.322,0.028c0.089,0.018,0.126,0.044,0.108,0.08C279.675,18.853,279.531,18.899,279.316,18.899z
		 M281.455,26.474c0.01,0.063,0.012,0.113,0.012,0.148c0,0.161-0.04,0.3-0.12,0.417c-0.081,0.117-0.247,0.166-0.498,0.147v-0.134
		v-0.161c0.035-0.036,0.125-0.131,0.269-0.283c0.144-0.153,0.241-0.246,0.298-0.282C281.432,26.362,281.446,26.411,281.455,26.474z
		 M281.495,21.59c0,0.178,0.072,0.269,0.216,0.269s0.215-0.09,0.215-0.269c0-0.198-0.071-0.298-0.215-0.298
		C281.567,21.294,281.495,21.391,281.495,21.59z"/>
	<path d="M293.593,29.259c0.063,0.107,0.192,0.162,0.391,0.162c0.143,0,0.25-0.04,0.321-0.121c0.072-0.08,0.127-0.184,0.161-0.309
		c0.036-0.125,0.055-0.251,0.055-0.376c0-0.144,0-0.269,0-0.378v-0.241c-0.037-0.054-0.148-0.116-0.337-0.189
		c-0.189-0.072-0.31-0.098-0.363-0.08v-5.06c-0.09-0.108-0.178-0.242-0.269-0.405c-0.091-0.16-0.179-0.318-0.27-0.47
		c-0.09-0.153-0.193-0.282-0.309-0.39c-0.116-0.108-0.246-0.163-0.39-0.163c-0.251,0-0.463,0.059-0.633,0.175
		c-0.171,0.117-0.381,0.175-0.633,0.175c0-0.521,0.116-0.894,0.351-1.117c0.234-0.225,0.619-0.338,1.157-0.338h0.297
		c0.036,0.019,0.125,0.067,0.269,0.148c0.144,0.081,0.232,0.132,0.27,0.149c0.019,0,0.072,0,0.161,0c0.091,0,0.18,0,0.27,0
		s0.179,0,0.27,0c0.089,0,0.143,0,0.16,0c0.037,0.018,0.126,0.113,0.271,0.282c0.143,0.171,0.232,0.265,0.269,0.282
		c0.019,0,0.076,0.004,0.174,0.013c0.098,0.011,0.176,0.014,0.23,0.014c0.053,0,0.137-0.004,0.256-0.014
		c0.116-0.01,0.183-0.013,0.201-0.013c0.018-0.017,0.063-0.067,0.133-0.148c0.072-0.081,0.117-0.13,0.136-0.148
		c0.053-0.017,0.147-0.04,0.282-0.068c0.133-0.027,0.274-0.053,0.417-0.081c0.143-0.026,0.283-0.053,0.416-0.079
		c0.136-0.028,0.229-0.041,0.284-0.041c0-0.036,0.005-0.109,0.014-0.217c0.01-0.108,0.014-0.178,0.014-0.215
		c0-0.252-0.014-0.463-0.04-0.633c-0.028-0.171-0.113-0.381-0.256-0.633h0.132h0.135c0.019,0.019,0.063,0.068,0.134,0.148
		c0.071,0.081,0.126,0.132,0.162,0.149c0.054,0.018,0.143,0.04,0.27,0.067c0.125,0.026,0.265,0.052,0.417,0.081
		c0.153,0.028,0.297,0.052,0.431,0.081c0.134,0.027,0.229,0.04,0.283,0.04l-0.297,0.269c0.054,0,0.134,0.014,0.241,0.04
		c0.109,0.028,0.221,0.059,0.339,0.094c0.115,0.036,0.228,0.068,0.336,0.094c0.107,0.026,0.179,0.05,0.216,0.067
		c0.018,0,0.062,0.045,0.134,0.135c0.071,0.09,0.116,0.133,0.135,0.133c0.249,0.126,0.479,0.225,0.686,0.296
		c0.206,0.073,0.386,0.153,0.538,0.242c0.153,0.09,0.273,0.225,0.363,0.404c0.09,0.18,0.134,0.44,0.134,0.78
		c0,0.036-0.009,0.116-0.026,0.242l-1.399,1.4c-0.036,0.036-0.167-0.023-0.391-0.175c-0.225-0.153-0.462-0.335-0.713-0.551
		c-0.252-0.215-0.495-0.417-0.728-0.605c-0.233-0.188-0.376-0.301-0.431-0.337c-0.019-0.018-0.059-0.009-0.12,0.027
		c-0.064,0.036-0.113,0.052-0.148,0.052v2.719h-0.432v-2.799c-0.446,0.036-0.789,0.139-1.021,0.309
		c-0.234,0.171-0.412,0.385-0.538,0.646c-0.127,0.259-0.221,0.552-0.283,0.875c-0.063,0.324-0.147,0.647-0.256,0.97
		c0,0.018-0.046,0.062-0.134,0.133c-0.09,0.072-0.135,0.117-0.135,0.134c0,0.018-0.004,0.076-0.012,0.175
		c-0.011,0.099-0.015,0.175-0.015,0.229c0,0.053,0.005,0.139,0.015,0.256c0.009,0.117,0.012,0.184,0.012,0.202
		c0.018,0.107,0.051,0.292,0.095,0.552c0.045,0.26,0.099,0.538,0.163,0.834c0.062,0.297,0.121,0.579,0.173,0.849
		c0.056,0.269,0.099,0.457,0.135,0.565c0.162,0.305,0.359,0.51,0.592,0.619c0.233,0.107,0.458,0.188,0.672,0.243
		c0.216,0.053,0.412,0.112,0.592,0.175c0.179,0.063,0.305,0.185,0.377,0.363c-0.055,0-0.148,0.01-0.282,0.027
		c-0.135,0.02-0.279,0.041-0.431,0.069c-0.153,0.027-0.292,0.058-0.417,0.093c-0.127,0.036-0.217,0.063-0.271,0.081
		c-0.144,0.073-0.237,0.17-0.283,0.296c-0.044,0.127-0.112,0.253-0.201,0.378c-0.089,0.126-0.238,0.238-0.444,0.336
		c-0.207,0.1-0.533,0.148-0.981,0.148c-0.413,0-0.758-0.052-1.036-0.161s-0.605-0.161-0.982-0.161c-0.179,0-0.321,0.017-0.43,0.053
		c-0.107,0.036-0.211,0.081-0.31,0.134c-0.1,0.053-0.202,0.103-0.31,0.148c-0.107,0.044-0.26,0.066-0.457,0.066
		c0-0.358,0.027-0.623,0.08-0.792c0.054-0.17,0.143-0.314,0.27-0.431c0.125-0.116,0.281-0.233,0.471-0.35
		c0.188-0.117,0.417-0.283,0.686-0.498c0.02-0.019,0.063-0.068,0.135-0.149c0.072-0.08,0.125-0.119,0.161-0.119
		c0-0.019,0.045-0.028,0.134-0.028C293.418,29.098,293.53,29.152,293.593,29.259z M298.154,27.59c0-0.053,0.036-0.17,0.108-0.35
		c0.07-0.179,0.126-0.295,0.161-0.35h0.134c0.196,0,0.371,0.044,0.524,0.134c0.153,0.091,0.229,0.234,0.229,0.432
		c0,0.286-0.13,0.501-0.39,0.646c-0.26,0.143-0.517,0.215-0.768,0.215c-0.036,0-0.091,0-0.161,0c-0.071,0-0.108-0.009-0.108-0.026
		c-0.053-0.019-0.151-0.059-0.295-0.122c-0.145-0.062-0.287-0.129-0.432-0.202c-0.144-0.072-0.279-0.144-0.403-0.215
		c-0.127-0.073-0.215-0.125-0.269-0.162H298.154z M297.722,31.251c-0.053,0-0.097-0.044-0.133-0.135
		c-0.02-0.089,0.027-0.133,0.133-0.133c0.128,0,0.18,0.044,0.162,0.133C297.849,31.207,297.794,31.251,297.722,31.251z
		 M302.851,17.969c0.26,0.081,0.525,0.185,0.793,0.31c0.27,0.126,0.503,0.255,0.7,0.391c0.197,0.133,0.296,0.254,0.296,0.362
		c0,0.197-0.089,0.391-0.269,0.579c-0.18,0.188-0.387,0.282-0.619,0.282c-0.02,0-0.063-0.044-0.135-0.134
		c-0.072-0.088-0.116-0.143-0.134-0.161c-0.197-0.125-0.367-0.236-0.512-0.336c-0.144-0.098-0.265-0.211-0.362-0.338
		c-0.098-0.125-0.174-0.273-0.229-0.442c-0.054-0.171-0.08-0.381-0.08-0.633C302.407,17.848,302.59,17.888,302.851,17.969z"/>
</g>
<g enable-background="new    ">
	<path d="M69.872,82.697l-1.926-44.533l25.74-1.112l0.326,7.534l-18.16,0.784l0.456,10.542l15.675-0.678l0.326,7.534l-15.675,0.677
		l0.818,18.925L69.872,82.697z"/>
	<path d="M101.863,81.313l-1.926-44.532l27.841-1.203l0.325,7.534l-20.259,0.875l0.426,9.873l18.851-0.814l0.323,7.504
		l-18.849,0.815l0.523,12.121l20.978-0.906l0.325,7.503L101.863,81.313z"/>
	<path d="M134.898,35.27l13.857-0.599c3.125-0.136,5.52,0.045,7.182,0.542c2.235,0.675,4.181,1.96,5.839,3.857
		c1.655,1.896,2.955,4.25,3.898,7.061c0.942,2.81,1.504,6.3,1.685,10.472c0.158,3.667-0.091,6.843-0.743,9.527
		c-0.798,3.281-2.026,5.962-3.681,8.042c-1.25,1.576-2.973,2.837-5.173,3.785c-1.647,0.7-3.871,1.11-6.67,1.23l-14.266,0.617
		L134.898,35.27z M142.805,42.476l1.275,29.497l5.661-0.245c2.117-0.092,3.639-0.299,4.565-0.624
		c1.214-0.417,2.208-1.08,2.981-1.986c0.773-0.905,1.373-2.367,1.799-4.384c0.426-2.017,0.566-4.747,0.417-8.188
		c-0.15-3.442-0.52-6.074-1.111-7.896c-0.591-1.82-1.371-3.227-2.337-4.22c-0.967-0.994-2.167-1.643-3.599-1.946
		c-1.073-0.237-3.153-0.289-6.242-0.155L142.805,42.476z"/>
	<path d="M174.731,78.165l-1.927-44.533l27.841-1.204l0.325,7.534l-20.259,0.875l0.427,9.871l18.851-0.813l0.325,7.504
		l-18.852,0.815l0.524,12.121l20.977-0.906l0.325,7.503L174.731,78.165z"/>
	<path d="M209.742,76.653l-1.926-44.533l15.956-0.691c4.012-0.173,6.946,0.102,8.799,0.822c1.854,0.722,3.369,2.082,4.552,4.08
		c1.181,1.999,1.828,4.315,1.942,6.947c0.145,3.341-0.566,6.136-2.127,8.386c-1.562,2.249-3.979,3.728-7.249,4.437
		c1.688,1.063,3.095,2.25,4.221,3.561c1.125,1.311,2.668,3.657,4.628,7.044l4.96,8.489l-9.065,0.392l-5.9-9.453
		c-2.096-3.38-3.522-5.504-4.279-6.374c-0.756-0.871-1.543-1.455-2.359-1.755s-2.097-0.412-3.838-0.336l-1.536,0.066l0.804,18.591
		L209.742,76.653z M216.214,50.625l5.609-0.241c3.637-0.157,5.9-0.438,6.788-0.841c0.891-0.404,1.572-1.062,2.045-1.976
		c0.475-0.914,0.683-2.038,0.625-3.374c-0.065-1.499-0.454-2.694-1.169-3.586c-0.714-0.892-1.692-1.434-2.933-1.623
		c-0.618-0.075-2.465-0.045-5.538,0.086l-5.917,0.257L216.214,50.625z"/>
	<path d="M247.599,75.016l-1.925-44.534l27.84-1.202l0.325,7.534l-20.26,0.875l0.426,9.872l18.852-0.814l0.324,7.503l-18.851,0.814
		l0.524,12.12l20.978-0.906l0.324,7.503L247.599,75.016z"/>
	<path d="M282.612,73.503l-1.926-44.532l15.956-0.691c4.013-0.173,6.946,0.1,8.799,0.821c1.854,0.722,3.37,2.082,4.552,4.081
		c1.181,1.998,1.83,4.315,1.943,6.946c0.145,3.34-0.564,6.136-2.128,8.384c-1.562,2.25-3.978,3.729-7.249,4.438
		c1.688,1.063,3.096,2.25,4.222,3.561c1.125,1.311,2.669,3.658,4.629,7.044l4.96,8.489l-9.068,0.392l-5.9-9.454
		c-2.096-3.378-3.522-5.503-4.277-6.374c-0.756-0.87-1.543-1.455-2.359-1.754c-0.817-0.3-2.097-0.412-3.839-0.337l-1.536,0.067
		l0.805,18.591L282.612,73.503z M289.082,47.476l5.608-0.242c3.638-0.157,5.9-0.438,6.79-0.841c0.89-0.403,1.571-1.062,2.045-1.976
		c0.473-0.913,0.682-2.037,0.624-3.374c-0.065-1.498-0.455-2.693-1.168-3.585c-0.715-0.893-1.692-1.434-2.933-1.624
		c-0.62-0.075-2.464-0.045-5.538,0.088l-5.917,0.256L289.082,47.476z"/>
</g>
<g enable-background="new    ">
	<path fill="#04FF10" d="M71.239,81.213L69.315,36.68l25.739-1.112l0.327,7.534l-18.161,0.784l0.457,10.542l15.674-0.677
		l0.326,7.533l-15.675,0.677l0.818,18.925L71.239,81.213z"/>
	<path fill="#04FF10" d="M103.229,79.831l-1.926-44.533l27.841-1.203l0.326,7.534l-20.259,0.875l0.426,9.872l18.851-0.813
		l0.324,7.503l-18.85,0.815l0.523,12.119l20.978-0.905l0.324,7.502L103.229,79.831z"/>
	<path fill="#04FF10" d="M136.265,33.787l13.857-0.599c3.125-0.135,5.519,0.046,7.183,0.542c2.234,0.675,4.18,1.96,5.837,3.856
		c1.656,1.896,2.956,4.251,3.898,7.06c0.942,2.811,1.504,6.301,1.684,10.473c0.158,3.667-0.09,6.842-0.743,9.526
		c-0.798,3.281-2.026,5.962-3.681,8.042c-1.249,1.576-2.973,2.837-5.173,3.785c-1.646,0.7-3.87,1.111-6.669,1.231l-14.267,0.616
		L136.265,33.787z M144.173,40.994l1.275,29.497l5.661-0.245c2.117-0.092,3.64-0.3,4.566-0.624c1.214-0.417,2.207-1.08,2.979-1.986
		c0.773-0.906,1.373-2.367,1.8-4.384c0.425-2.017,0.565-4.747,0.416-8.189c-0.149-3.443-0.519-6.074-1.111-7.896
		c-0.591-1.82-1.371-3.226-2.337-4.22c-0.966-0.994-2.167-1.642-3.598-1.945c-1.073-0.237-3.153-0.29-6.243-0.155L144.173,40.994z"
		/>
	<path fill="#04FF10" d="M176.098,76.682l-1.926-44.533l27.841-1.203l0.324,7.534l-20.259,0.875l0.427,9.871l18.852-0.813
		l0.324,7.503l-18.852,0.814l0.524,12.121l20.979-0.906l0.324,7.503L176.098,76.682z"/>
	<path fill="#04FF10" d="M211.111,75.17l-1.927-44.534l15.956-0.69c4.013-0.173,6.946,0.101,8.799,0.822
		c1.854,0.722,3.37,2.082,4.552,4.08c1.181,1.998,1.829,4.314,1.942,6.947c0.145,3.342-0.565,6.137-2.127,8.384
		c-1.562,2.25-3.979,3.729-7.25,4.438c1.688,1.063,3.096,2.25,4.222,3.561s2.669,3.657,4.628,7.043l4.959,8.489l-9.065,0.392
		l-5.9-9.454c-2.096-3.378-3.522-5.503-4.279-6.374c-0.755-0.871-1.543-1.455-2.358-1.755c-0.817-0.299-2.098-0.412-3.84-0.336
		l-1.535,0.066l0.804,18.591L211.111,75.17z M217.58,49.143l5.609-0.242c3.638-0.157,5.901-0.438,6.79-0.842
		c0.89-0.404,1.571-1.062,2.044-1.975c0.475-0.914,0.683-2.038,0.625-3.375c-0.065-1.498-0.454-2.693-1.168-3.586
		c-0.715-0.892-1.693-1.434-2.933-1.624c-0.619-0.074-2.464-0.046-5.539,0.087l-5.916,0.257L217.58,49.143z"/>
	<path fill="#04FF10" d="M248.966,73.533L247.04,29l27.841-1.202l0.324,7.533l-20.259,0.876l0.427,9.872l18.852-0.814l0.324,7.503
		l-18.852,0.814l0.525,12.121l20.978-0.906l0.324,7.503L248.966,73.533z"/>
	<path fill="#04FF10" d="M283.979,72.021l-1.926-44.534l15.956-0.689c4.013-0.174,6.945,0.099,8.799,0.821
		c1.854,0.722,3.369,2.082,4.551,4.081c1.184,1.998,1.83,4.313,1.945,6.946c0.144,3.342-0.566,6.137-2.128,8.385
		c-1.563,2.25-3.979,3.729-7.25,4.437c1.688,1.065,3.096,2.251,4.222,3.561c1.125,1.311,2.668,3.659,4.628,7.043l4.961,8.49
		l-9.068,0.391l-5.9-9.454c-2.095-3.379-3.521-5.503-4.277-6.374s-1.543-1.455-2.36-1.754c-0.816-0.3-2.097-0.412-3.837-0.337
		l-1.537,0.067l0.805,18.59L283.979,72.021z M290.448,45.994l5.609-0.241c3.637-0.158,5.9-0.438,6.79-0.842
		c0.889-0.404,1.57-1.062,2.045-1.975c0.473-0.913,0.682-2.039,0.624-3.375c-0.065-1.498-0.454-2.694-1.169-3.587
		c-0.715-0.891-1.69-1.433-2.932-1.623c-0.618-0.074-2.465-0.046-5.538,0.089l-5.918,0.254L290.448,45.994z"/>
</g>
</svg>
